<svg id="Logo1" xmlns="http://www.w3.org/2000/svg" viewBox="0 0 414.64 317.48"><defs><style>.cls-1,.cls-2{fill:#4257a7;}.cls-1{stroke:#231f20;stroke-linecap:round;}.cls-1,.cls-16{stroke-miterlimit:10;}.cls-3{font-size:36px;font-family:Noteworthy-Bold, Noteworthy;font-weight:700;}.cls-16,.cls-3{fill:#fff;}.cls-4{letter-spacing:0.1em;}.cls-5{letter-spacing:0.07em;}.cls-6{letter-spacing:0.11em;}.cls-7{letter-spacing:0.1em;}.cls-8{letter-spacing:0.11em;}.cls-10,.cls-11,.cls-9{font-size:48px;}.cls-9{letter-spacing:0em;}.cls-11{letter-spacing:-0.04em;}.cls-12{letter-spacing:0.54em;}.cls-13,.cls-14,.cls-15{font-size:72px;}.cls-14{letter-spacing:-0.05em;}.cls-15{letter-spacing:-0.04em;}.cls-16{stroke:#fff;stroke-width:6px;}</style></defs><path class="cls-1" d="M182.33,338.88a165.43,165.43,0,0,1-83.77,1.43" transform="translate(-18.82 -32.24)"/><path class="cls-2" d="M152.9,349.72c-77.34-19-134.08-81.56-134.08-155.78,0-89.31,82.16-161.7,183.5-161.7s183.5,72.39,183.5,161.7c0,72-53.42,133-127.24,154" transform="translate(-18.82 -32.24)"/><text class="cls-3" transform="translate(18.64 124.51)"><tspan class="cls-4" xml:space="preserve">  Es</tspan><tspan class="cls-5" x="71.37" y="0">p</tspan><tspan class="cls-6" x="92.25" y="0">an</tspan><tspan class="cls-7" x="138.78" y="0">h</tspan><tspan class="cls-8" x="159.16" y="0">o</tspan><tspan class="cls-4" x="181.8" y="0">l Com o</tspan><tspan class="cls-9" x="317.7" y="0"> </tspan><tspan class="cls-10" x="327.76" y="0" xml:space="preserve">      </tspan><tspan class="cls-11" x="387.88" y="0">	</tspan><tspan class="cls-10"><tspan class="cls-12" x="0" y="86.4">	</tspan><tspan class="cls-13" x="36" y="86.4">Robe</tspan><tspan class="cls-14" x="201.78" y="86.4">r</tspan><tspan class="cls-15" x="227.07" y="86.4">t</tspan><tspan class="cls-13" x="250.92" y="86.4">o</tspan></tspan></text><line class="cls-16" x1="124.08" y1="247.39" x2="242.91" y2="247.39"/><line class="cls-16" x1="124.08" y1="59.66" x2="242.91" y2="59.66"/></svg>