<svg id="Layer_1" data-name="Layer 1" xmlns="http://www.w3.org/2000/svg" viewBox="0 0 414.62 317.48"><defs><style>.cls-1,.cls-2{fill:#4257a7;}.cls-1{stroke:#231f20;}.cls-1,.cls-15{stroke-linecap:round;stroke-miterlimit:10;}.cls-10,.cls-11,.cls-12,.cls-13,.cls-14,.cls-3,.cls-4,.cls-5,.cls-6,.cls-8,.cls-9{isolation:isolate;}.cls-4,.cls-5,.cls-6,.cls-8,.cls-9{font-size:36px;}.cls-10,.cls-11,.cls-12,.cls-13,.cls-14,.cls-4,.cls-5,.cls-6,.cls-8,.cls-9{fill:#fff;font-family:Noteworthy-Bold, Noteworthy;font-weight:700;}.cls-4{letter-spacing:0.1em;}.cls-5{letter-spacing:0.07em;}.cls-6{letter-spacing:0.12em;}.cls-7,.cls-9{letter-spacing:0.11em;}.cls-8{letter-spacing:0.1em;}.cls-10,.cls-11{font-size:48px;}.cls-11{letter-spacing:-0.04em;}.cls-12,.cls-13,.cls-14{font-size:72px;}.cls-13{letter-spacing:-0.05em;}.cls-14{letter-spacing:-0.04em;}.cls-15{fill:none;stroke:#fff;stroke-width:5px;}</style></defs><g id="Logo1"><path class="cls-1" d="M570,457.61A165.61,165.61,0,0,1,486.26,459" transform="translate(-406.52 -150.97)"/><path class="cls-2" d="M540.6,468.45c-77.34-19-134.08-81.56-134.08-155.78,0-89.31,82.16-161.7,183.5-161.7s183.5,72.39,183.5,161.7c0,72-53.42,133-127.24,154" transform="translate(-406.52 -150.97)"/><g class="cls-3"><text class="cls-4" transform="translate(18.64 124.51)"><tspan xml:space="preserve">  Es</tspan></text><text class="cls-5" transform="translate(90.01 124.51)">p</text><text class="cls-6" transform="translate(110.89 124.51)">a<tspan class="cls-7" x="23.67" y="0">n</tspan></text><text class="cls-8" transform="translate(157.42 124.51)">h</text><text class="cls-9" transform="translate(177.8 124.51)">o</text><text class="cls-8" transform="translate(200.44 124.51)">l Com o</text><text class="cls-10" transform="translate(336.34 124.51)"> </text><text class="cls-10" transform="translate(346.4 124.51)"><tspan xml:space="preserve">      </tspan></text><text class="cls-11" transform="translate(406.52 124.51)"> </text><text class="cls-12" transform="translate(54.64 210.91)">Robe</text><text class="cls-13" transform="translate(220.42 210.91)">r</text><text class="cls-14" transform="translate(245.71 210.91)">t</text><text class="cls-12" transform="translate(269.56 210.91)">o</text></g><line class="cls-15" x1="124.08" y1="247.39" x2="242.91" y2="247.39"/><line class="cls-15" x1="124.08" y1="59.66" x2="242.91" y2="59.66"/></g></svg>