<svg width="94" height="17" viewBox="0 0 94 17" fill="none" xmlns="http://www.w3.org/2000/svg">
<path d="M0.243642 7.47295L2.04755 9.92294C2.25369 10.2028 2.34004 10.6988 2.26143 11.1517L1.572 15.1167C1.3961 16.1296 2.01622 16.972 2.4774 16.3462L4.2813 13.8959C4.48744 13.6156 4.76629 13.6156 4.97243 13.8959L6.77633 16.3462C7.23731 16.972 7.85762 16.1296 7.68173 15.1167L6.99256 11.1517C6.91355 10.6987 6.99991 10.2028 7.20625 9.92294L9.00999 7.47295C9.47078 6.84666 9.23428 5.48369 8.66442 5.48369L6.43468 5.48381C6.18003 5.48381 5.95372 5.17699 5.87525 4.72404L5.18633 0.760279C5.01024 -0.253426 4.24374 -0.253426 4.06745 0.760279L3.37808 4.72436C3.29959 5.17731 3.07414 5.48412 2.81903 5.48412L0.589124 5.484C0.0193364 5.484 -0.217239 6.84697 0.243559 7.47301L0.243642 7.47295Z" fill="#EFBD2F"/>
<path d="M21.4302 7.47295L23.2341 9.92294C23.4403 10.2028 23.5266 10.6988 23.448 11.1517L22.7586 15.1167C22.5827 16.1296 23.2028 16.972 23.664 16.3462L25.4679 13.8959C25.674 13.6156 25.9529 13.6156 26.159 13.8959L27.9629 16.3462C28.4239 16.972 29.0442 16.1296 28.8683 15.1167L28.1791 11.1517C28.1001 10.6987 28.1865 10.2028 28.3928 9.92294L30.1966 7.47295C30.6574 6.84666 30.4208 5.48369 29.851 5.48369L27.6212 5.48381C27.3666 5.48381 27.1403 5.17699 27.0618 4.72404L26.3729 0.760279C26.1968 -0.253426 25.4303 -0.253426 25.254 0.760279L24.5647 4.72436C24.4862 5.17731 24.2607 5.48412 24.0056 5.48412L21.7757 5.484C21.2059 5.484 20.9693 6.84697 21.4301 7.47301L21.4302 7.47295Z" fill="#EFBD2F"/>
<path d="M42.6168 7.47295L44.4207 9.92294C44.6268 10.2028 44.7132 10.6988 44.6346 11.1517L43.9451 15.1167C43.7692 16.1296 44.3894 16.972 44.8505 16.3462L46.6544 13.8959C46.8606 13.6156 47.1394 13.6156 47.3456 13.8959L49.1495 16.3462C49.6105 16.972 50.2308 16.1296 50.0549 15.1167L49.3657 11.1517C49.2867 10.6987 49.3731 10.2028 49.5794 9.92294L51.3831 7.47295C51.8439 6.84666 51.6074 5.48369 51.0376 5.48369L48.8078 5.48381C48.5532 5.48381 48.3269 5.17699 48.2484 4.72404L47.5595 0.760279C47.3834 -0.253426 46.6169 -0.253426 46.4406 0.760279L45.7512 4.72436C45.6727 5.17731 45.4473 5.48412 45.1922 5.48412L42.9623 5.484C42.3925 5.484 42.1559 6.84697 42.6167 7.47301L42.6168 7.47295Z" fill="#EFBD2F"/>
<path d="M63.8034 7.47295L65.6073 9.92294C65.8135 10.2028 65.8998 10.6988 65.8212 11.1517L65.1318 15.1167C64.9559 16.1296 65.576 16.972 66.0372 16.3462L67.8411 13.8959C68.0472 13.6156 68.3261 13.6156 68.5322 13.8959L70.3361 16.3462C70.7971 16.972 71.4174 16.1296 71.2415 15.1167L70.5523 11.1517C70.4733 10.6987 70.5597 10.2028 70.766 9.92294L72.5698 7.47295C73.0306 6.84666 72.7941 5.48369 72.2242 5.48369L69.9945 5.48381C69.7398 5.48381 69.5135 5.17699 69.435 4.72404L68.7461 0.760279C68.57 -0.253426 67.8035 -0.253426 67.6272 0.760279L66.9379 4.72436C66.8594 5.17731 66.6339 5.48412 66.3788 5.48412L64.1489 5.484C63.5791 5.484 63.3425 6.84697 63.8033 7.47301L63.8034 7.47295Z" fill="#EFBD2F"/>
<path d="M84.9901 7.47295L86.794 9.92294C87.0001 10.2028 87.0865 10.6988 87.0079 11.1517L86.3184 15.1167C86.1425 16.1296 86.7626 16.972 87.2238 16.3462L89.0277 13.8959C89.2339 13.6156 89.5127 13.6156 89.7189 13.8959L91.5228 16.3462C91.9837 16.972 92.6041 16.1296 92.4282 15.1167L91.739 11.1517C91.66 10.6987 91.7463 10.2028 91.9527 9.92294L93.7564 7.47295C94.2172 6.84666 93.9807 5.48369 93.4109 5.48369L91.1811 5.48381C90.9265 5.48381 90.7002 5.17699 90.6217 4.72404L89.9328 0.760279C89.7567 -0.253426 88.9902 -0.253426 88.8139 0.760279L88.1245 4.72436C88.046 5.17731 87.8206 5.48412 87.5655 5.48412L85.3356 5.484C84.7658 5.484 84.5292 6.84697 84.99 7.47301L84.9901 7.47295Z" fill="#EFBD2F"/>
</svg>
