<svg width="80" height="62" viewBox="0 0 80 62" fill="none" xmlns="http://www.w3.org/2000/svg">
<path d="M77.959 34.2515H63.1804C62.497 34.2515 61.943 34.813 61.943 35.5055V41.2062H48.2604C47.577 41.2062 47.0229 41.7678 47.0229 42.4603V47.4188H32.793C32.1096 47.4188 31.5556 47.9803 31.5556 48.6728V53.0619H17.9437C17.2603 53.0619 16.7062 53.6234 16.7062 54.3159V59.332H1.23744C0.554092 59.332 0 59.8935 0 60.5861C0 61.2786 0.554092 61.8401 1.23744 61.8401H17.9422C18.6256 61.8401 19.1797 61.2786 19.1797 60.5861V55.5699H32.7916C33.4749 55.5699 34.029 55.0084 34.029 54.3159V49.9268H48.2589C48.9423 49.9268 49.4964 49.3653 49.4964 48.6728V43.7143H63.179C63.8623 43.7143 64.4164 43.1528 64.4164 42.4603V36.7595H77.9576C78.641 36.7595 79.1951 36.198 79.1951 35.5055C79.1951 34.813 78.641 34.2515 77.9576 34.2515H77.959Z" fill="#142256"/>
<path d="M55.7384 22.5619C56.1876 22.7439 56.6488 22.834 57.1195 22.834C57.3443 22.834 57.5653 22.8138 57.7802 22.7747C57.8023 23.0641 57.8305 23.3474 57.8658 23.6228L57.8708 23.6654L57.878 23.7073C58.0249 24.6339 58.0702 25.814 57.9725 26.1807L57.9443 26.2865L57.9255 26.394C57.6112 28.1782 56.7383 33.0544 56.4776 34.1752C56.1301 35.6638 56.4633 37.1619 57.3692 38.1807C58.125 39.0328 59.1547 39.5019 60.2673 39.5019C62.1212 39.5019 63.7603 38.1746 64.1642 36.3457L65.3314 31.3334C65.6347 31.7875 66.0623 32.2062 66.6645 32.527C67.2296 32.8282 67.8743 32.9866 68.5295 32.9866C69.6593 32.9866 70.7244 32.5203 71.4513 31.7074C72.1391 30.9382 72.5297 29.9388 72.5562 28.8853L72.8037 24.3209L72.8164 24.1429C72.8755 23.3508 73.0318 21.2475 70.8857 20.0175C70.8382 19.989 70.7907 19.9615 70.7443 19.9341C72.1851 19.4958 73.2125 18.0827 73.2125 16.3601C73.2125 15.415 72.8899 14.5166 72.3049 13.8302C71.6049 13.0095 70.5968 12.556 69.4665 12.5538C69.329 12.5488 68.8909 12.5325 68.386 12.5135C68.3379 12.2 68.2749 11.8758 68.1926 11.5287C67.8932 10.2596 67.3049 9.25415 66.4724 8.50288C67.5551 7.64745 68.2628 6.26469 68.2628 4.7021C68.2628 2.10949 66.3199 0 63.9317 0C61.5435 0 59.6006 2.10949 59.6006 4.7021C59.6006 5.79434 59.9481 6.79869 60.526 7.59812C60.1448 7.85172 59.7829 8.17139 59.4438 8.56272C59.4443 8.56216 56.1369 12.2044 56.1015 12.2437C55.6795 12.7089 55.3773 13.1982 55.1547 13.7782L53.6665 17.6763C52.9317 19.6005 53.8615 21.7928 55.7386 22.562L55.7384 22.5619ZM63.9316 2.50751C64.9569 2.50751 65.7878 3.49003 65.7878 4.70156C65.7878 5.91415 64.9569 6.89661 63.9316 6.89661C62.9063 6.89661 62.0754 5.9141 62.0754 4.70156C62.0754 3.49008 62.9063 2.50751 63.9316 2.50751ZM55.9749 18.5791L57.4615 14.6849C57.5748 14.3904 57.7184 14.1654 57.9283 13.9336C57.9637 13.8944 61.2717 10.2521 61.2717 10.2521C61.4363 10.0656 61.9611 9.40392 62.8024 9.40392C62.8024 9.40392 63.0168 9.4112 63.1328 9.44087C63.6963 9.58419 64.2117 9.86803 64.6768 10.2224C65.2823 10.6837 65.611 11.3734 65.7856 12.1129C65.9927 12.9862 66.0458 13.6715 66.0701 14.556C66.0761 14.7514 66.0817 14.9328 66.2717 14.9434C66.2833 14.9445 69.4212 15.0604 69.4212 15.0604H69.4565C71.2034 15.0604 71.0133 17.5656 69.7908 17.5656C69.7786 17.5656 67.3081 17.546 66.4154 17.546H66.3933C66.0823 17.546 66.0878 17.8002 66.0878 17.8002C66.0895 17.8713 66.0823 17.9368 66.079 18.0079C66.069 18.3024 66.0547 18.5974 66.0503 18.8924C66.0387 19.525 65.916 20.0961 66.5823 20.3811C66.5939 20.3861 69.6681 22.1989 69.6681 22.1989C70.5293 22.6927 70.384 23.3695 70.3332 24.1818L70.0835 28.7909C70.0791 29.25 69.92 29.6844 69.6189 30.0209C69.3466 30.3254 68.9367 30.4766 68.5306 30.4766C68.2809 30.4766 68.0323 30.4195 67.818 30.3053C67.0899 29.9173 67.0645 29.0098 67.0518 28.2642C67.0512 28.2384 67.0827 25.068 67.0827 25.068C67.1136 24.3979 66.8523 24.0469 66.8523 24.0469L64.0708 22.8382C64.0708 22.8382 63.9885 22.7811 63.9117 22.7811C63.8874 22.7811 63.8631 22.7873 63.8427 22.8024C63.7339 22.8847 63.7847 23.0386 63.7847 23.0386L63.9653 24.7971C64.1194 25.4191 63.9316 26.5366 63.9316 26.5366L63.7267 27.3013L61.749 35.7962C61.591 36.5127 60.9386 36.9925 60.2673 36.9925C59.8923 36.9925 59.5116 36.8431 59.2083 36.501C58.8089 36.0515 58.7498 35.336 58.8868 34.7492C59.2205 33.3155 60.3624 26.8338 60.3624 26.8338C60.6911 25.6005 60.3215 23.3029 60.3215 23.3029C59.8901 19.8991 60.6082 14.8791 60.6082 14.8791C60.6243 14.7929 60.6397 14.7078 60.6558 14.6216L59.7398 15.6545L58.2648 19.5179C58.0731 20.0195 57.6096 20.3246 57.1196 20.3246C56.9682 20.3246 56.8152 20.2961 56.6666 20.2356C56.0341 19.9764 55.7247 19.2346 55.975 18.579L55.9749 18.5791Z" fill="#142256"/>
</svg>
