<svg width="92" height="52" viewBox="0 0 92 52" fill="none" xmlns="http://www.w3.org/2000/svg">
<path d="M90.5641 19.6669H73.396C72.6021 19.6669 71.9584 20.3192 71.9584 21.1237V27.7461H56.0635C55.2697 27.7461 54.626 28.3985 54.626 29.2029V34.9632H38.0953C37.3014 34.9632 36.6577 35.6155 36.6577 36.42V41.5187H20.8449C20.0511 41.5187 19.4074 42.171 19.4074 42.9755V48.8027H1.43753C0.643683 48.8027 0 49.455 0 50.2595C0 51.0639 0.643683 51.7163 1.43753 51.7163H20.8433C21.6371 51.7163 22.2808 51.0639 22.2808 50.2595V44.4323H38.0936C38.8875 44.4323 39.5311 43.78 39.5311 42.9755V37.8767H56.0619C56.8557 37.8767 57.4994 37.2244 57.4994 36.42V30.6597H73.3943C74.1882 30.6597 74.8318 30.0074 74.8318 29.2029V22.5805H90.5625C91.3563 22.5805 92 21.9281 92 21.1237C92 20.3192 91.3563 19.6669 90.5625 19.6669H90.5641Z" fill="#142256"/>
<path d="M6.83592 26.2099C7.35767 26.4213 7.89353 26.526 8.44029 26.526C8.70148 26.526 8.95818 26.5026 9.20784 26.4571C9.23351 26.7933 9.26624 27.1224 9.30731 27.4424L9.31308 27.4918L9.32143 27.5406C9.49214 28.6169 9.54476 29.9878 9.43117 30.4138L9.39844 30.5368L9.37662 30.6616C9.01145 32.7343 7.9975 38.3989 7.69463 39.7009C7.29097 41.4302 7.67794 43.1705 8.73042 44.3541C9.60835 45.344 10.8046 45.889 12.097 45.889C14.2507 45.889 16.1548 44.347 16.624 42.2223L17.98 36.3997C18.3323 36.9271 18.8291 37.4136 19.5286 37.7862C20.1851 38.1361 20.934 38.3202 21.6952 38.3202C23.0076 38.3202 24.245 37.7784 25.0894 36.8341C25.8884 35.9405 26.3421 34.7796 26.3729 33.5557L26.6604 28.2534L26.6752 28.0466C26.7439 27.1263 26.9255 24.6829 24.4323 23.2541C24.3771 23.221 24.3219 23.1891 24.268 23.1572C25.9418 22.648 27.1354 21.0065 27.1354 19.0053C27.1354 17.9075 26.7606 16.8637 26.081 16.0664C25.2679 15.113 24.0967 14.5862 22.7837 14.5836C22.6239 14.5778 22.115 14.5589 21.5284 14.5368C21.4726 14.1726 21.3994 13.796 21.3038 13.3928C20.956 11.9185 20.2725 10.7504 19.3054 9.8777C20.5632 8.88396 21.3853 7.27762 21.3853 5.46238C21.3853 2.45057 19.1283 0 16.3539 0C13.5796 0 11.3226 2.45057 11.3226 5.46238C11.3226 6.73122 11.7263 7.89797 12.3975 8.82665C11.9547 9.12125 11.5344 9.49261 11.1404 9.94721C11.141 9.94656 7.2988 14.1777 7.25773 14.2233C6.76742 14.7638 6.41639 15.3322 6.15776 16.006L4.42896 20.5343C3.57543 22.7696 4.65549 25.3164 6.83611 26.21L6.83592 26.2099ZM16.3538 2.91295C17.5449 2.91295 18.5101 4.05432 18.5101 5.46175C18.5101 6.87041 17.5449 8.01171 16.3538 8.01171C15.1627 8.01171 14.1975 6.87034 14.1975 5.46175C14.1975 4.05439 15.1627 2.91295 16.3538 2.91295ZM7.11061 21.5832L8.83761 17.0593C8.96917 16.7172 9.13603 16.4558 9.3799 16.1865C9.42097 16.141 13.2638 11.9097 13.2638 11.9097C13.4551 11.6931 14.0648 10.9244 15.0421 10.9244C15.0421 10.9244 15.2911 10.9329 15.4259 10.9674C16.0805 11.1338 16.6792 11.4636 17.2196 11.8752C17.9229 12.4111 18.3048 13.2124 18.5076 14.0714C18.7482 15.086 18.8098 15.882 18.8381 16.9096C18.8451 17.1365 18.8515 17.3473 19.0723 17.3596C19.0858 17.3609 22.731 17.4955 22.731 17.4955H22.7721C24.8014 17.4955 24.5806 20.4058 23.1603 20.4058C23.1462 20.4058 20.2763 20.383 19.2393 20.383H19.2136C18.8523 20.383 18.8587 20.6783 18.8587 20.6783C18.8606 20.7609 18.8523 20.837 18.8484 20.9196C18.8369 21.2616 18.8202 21.6044 18.8151 21.9471C18.8016 22.682 18.6591 23.3454 19.4331 23.6765C19.4465 23.6823 23.0178 25.7882 23.0178 25.7882C24.0183 26.3618 23.8496 27.1481 23.7905 28.0918L23.5004 33.4461C23.4953 33.9794 23.3105 34.4841 22.9607 34.8749C22.6443 35.2287 22.1682 35.4043 21.6965 35.4043C21.4064 35.4043 21.1176 35.338 20.8686 35.2053C20.0228 34.7546 19.9933 33.7004 19.9785 32.8342C19.9778 32.8042 20.0144 29.1213 20.0144 29.1213C20.0504 28.3428 19.7468 27.935 19.7468 27.935L16.5156 26.5309C16.5156 26.5309 16.42 26.4646 16.3308 26.4646C16.3025 26.4646 16.2743 26.4717 16.2505 26.4893C16.1241 26.5849 16.1832 26.7637 16.1832 26.7637L16.393 28.8066C16.572 29.5291 16.3539 30.8272 16.3539 30.8272L16.1158 31.7156L13.8184 41.584C13.6348 42.4164 12.8769 42.9738 12.0971 42.9738C11.6614 42.9738 11.2192 42.8002 10.8669 42.4028C10.4029 41.8806 10.3342 41.0494 10.4934 40.3678C10.881 38.7022 12.2076 31.1725 12.2076 31.1725C12.5894 29.7398 12.1601 27.0707 12.1601 27.0707C11.6589 23.1166 12.4931 17.2849 12.4931 17.2849C12.5117 17.1848 12.5297 17.0859 12.5483 16.9857L11.4843 18.1856L9.77076 22.6737C9.54807 23.2564 9.00964 23.6109 8.4404 23.6109C8.26456 23.6109 8.0868 23.5777 7.91417 23.5075C7.17935 23.2064 6.81997 22.3446 7.1107 21.583L7.11061 21.5832Z" fill="#142256"/>
</svg>
