<svg width="77" height="78" viewBox="0 0 77 78" fill="none" xmlns="http://www.w3.org/2000/svg">
<path d="M38.3122 31.5081C40.5063 31.52 42.6392 30.7788 44.3591 29.4057C48.0276 26.4772 50.5094 21.9426 51.7497 17.5513C52.1337 16.1999 52.3308 14.8015 52.3351 13.3959C52.3351 5.9977 46.1401 0.000126896 38.4999 0.000126896C34.9415 -0.0150218 31.5094 1.32666 28.8932 3.75572C26.2071 6.23189 24.6732 9.72781 24.6639 13.3957C24.7859 18.7251 26.7586 23.843 30.2403 27.8589C32.3059 30.1592 35.2337 31.4825 38.313 31.508L38.3122 31.5081ZM30.529 5.53318C32.6995 3.51903 35.5478 2.40788 38.4992 2.42464C44.4289 2.42464 49.3155 6.78242 49.8731 12.3368L47.716 13.3393V13.3398C47.268 12.3801 46.4796 11.6248 45.5053 11.2235C44.5315 10.8215 43.4433 10.8026 42.4561 11.1699C41.4688 11.5372 40.6541 12.2643 40.1733 13.2079C39.0856 12.8595 37.9201 12.8389 36.8206 13.1494L36.7997 13.1554C36.305 12.2184 35.48 11.5026 34.4869 11.1494C33.4938 10.7961 32.405 10.8308 31.4361 11.2473C30.4677 11.6634 29.6889 12.4305 29.2549 13.3968L27.1205 12.4046C27.3708 9.76777 28.5857 7.3186 30.529 5.53339L30.529 5.53318ZM45.7173 15.149C45.7173 15.8842 45.2774 16.5469 44.6033 16.8282C43.9287 17.1095 43.1526 16.9543 42.6364 16.4344C42.1202 15.9145 41.9661 15.1327 42.2454 14.4532C42.5246 13.7742 43.1826 13.3311 43.9125 13.3311C44.9094 13.3311 45.7172 14.1448 45.7172 15.1489L45.7173 15.149ZM34.8892 15.149C34.8892 15.8842 34.4493 16.5469 33.7752 16.8282C33.1006 17.1095 32.3244 16.9543 31.8082 16.4344C31.2921 15.9145 31.1379 15.1327 31.4172 14.4532C31.6965 13.7742 32.3545 13.3311 33.0844 13.3311C34.0813 13.3311 34.8891 14.1448 34.8891 15.1489L34.8892 15.149ZM28.9471 15.9237C29.1963 17.2778 30.0831 18.4258 31.3249 19.002C32.5667 19.5776 34.0093 19.51 35.1926 18.8208C36.3759 18.131 37.1531 16.9051 37.276 15.5337L37.4576 15.4823C38.1193 15.2989 38.8197 15.3141 39.4728 15.5245L39.7268 15.6051C39.8729 16.975 40.6711 18.1878 41.8666 18.857C43.0622 19.5262 44.5059 19.5684 45.738 18.9701C46.9696 18.3718 47.8366 17.2075 48.0611 15.8485L49.8153 15.0327V15.0333C49.7332 15.6603 49.6053 16.2803 49.4345 16.8888C48.19 21.2963 45.795 25.1667 42.8635 27.507C41.5691 28.5403 39.9631 29.097 38.3116 29.0852C35.9124 29.0527 33.6338 28.0189 32.0199 26.2304C29.3301 23.0921 27.6376 19.2125 27.1628 15.0945L28.9471 15.9237Z" fill="#142256"/>
<path d="M74.593 43.0198H57.7492C57.1111 43.0203 56.4994 43.2762 56.0488 43.7306C55.5976 44.1845 55.3435 44.8008 55.343 45.4434V69.6802H48.7258V63.621C48.7242 62.3356 48.2166 61.1037 47.3148 60.1949C46.4125 59.2866 45.1895 58.7753 43.9133 58.7737H41.5071C40.2309 58.7753 39.0079 59.2865 38.1056 60.1949C37.2038 61.1038 36.6962 62.3357 36.6946 63.621V69.6802H30.6789V46.05C30.6784 45.4073 30.4244 44.7911 29.9732 44.3373C29.5226 43.8828 28.9108 43.6269 28.2727 43.6264H2.40622C1.76814 43.6269 1.15637 43.8828 0.70576 44.3373C0.254595 44.7912 0.00053625 45.4074 0 46.05V76.3461C0 77.0153 0.538725 77.5579 1.20313 77.5579H75.7969C76.4613 77.5579 77 77.0153 77 76.3461V45.4448C76.9995 44.8021 76.7454 44.1859 76.2942 43.732C75.8436 43.2776 75.2318 43.0217 74.5938 43.0212L74.593 43.0198ZM39.1015 63.6211C39.102 62.9784 39.3561 62.3622 39.8072 61.9083C40.2579 61.4538 40.8696 61.198 41.5077 61.1974H43.914C44.552 61.198 45.1638 61.4538 45.6144 61.9083C46.0656 62.3622 46.3196 62.9784 46.3202 63.6211V69.6803H39.1014L39.1015 63.6211ZM2.40548 46.0487H28.272V69.6789H2.40548V46.0487ZM74.593 75.1329H2.40548V72.1033H74.593V75.1329ZM74.593 69.6796H57.7492V45.4428H74.593V69.6796Z" fill="#142256"/>
<path d="M6.91687 49.6858H5.71375C5.04935 49.6858 4.51062 50.2284 4.51062 50.8976C4.51062 51.5668 5.04935 52.1095 5.71375 52.1095H6.91687C7.58127 52.1095 8.12 51.5668 8.12 50.8976C8.12 50.2284 7.58127 49.6858 6.91687 49.6858Z" fill="#142256"/>
<path d="M6.91687 54.5332H5.71375C5.04935 54.5332 4.51062 55.0758 4.51062 55.745C4.51062 56.4143 5.04935 56.9569 5.71375 56.9569H6.91687C7.58127 56.9569 8.12 56.4143 8.12 55.745C8.12 55.0758 7.58127 54.5332 6.91687 54.5332Z" fill="#142256"/>
<path d="M6.91687 59.3806H5.71375C5.04935 59.3806 4.51062 59.9232 4.51062 60.5925C4.51062 61.2617 5.04935 61.8043 5.71375 61.8043H6.91687C7.58127 61.8043 8.12 61.2617 8.12 60.5925C8.12 59.9232 7.58127 59.3806 6.91687 59.3806Z" fill="#142256"/>
<path d="M6.91687 64.2278H5.71375C5.04935 64.2278 4.51062 64.7704 4.51062 65.4396C4.51062 66.1088 5.04935 66.6515 5.71375 66.6515H6.91687C7.58127 66.6515 8.12 66.1088 8.12 65.4396C8.12 64.7704 7.58127 64.2278 6.91687 64.2278Z" fill="#142256"/>
<path d="M12.9325 49.6858H11.7294C11.065 49.6858 10.5262 50.2284 10.5262 50.8976C10.5262 51.5668 11.065 52.1095 11.7294 52.1095H12.9325C13.5969 52.1095 14.1356 51.5668 14.1356 50.8976C14.1356 50.2284 13.5969 49.6858 12.9325 49.6858Z" fill="#142256"/>
<path d="M12.9325 54.5332H11.7294C11.065 54.5332 10.5262 55.0758 10.5262 55.745C10.5262 56.4143 11.065 56.9569 11.7294 56.9569H12.9325C13.5969 56.9569 14.1356 56.4143 14.1356 55.745C14.1356 55.0758 13.5969 54.5332 12.9325 54.5332Z" fill="#142256"/>
<path d="M12.9325 59.3806H11.7294C11.065 59.3806 10.5262 59.9232 10.5262 60.5925C10.5262 61.2617 11.065 61.8043 11.7294 61.8043H12.9325C13.5969 61.8043 14.1356 61.2617 14.1356 60.5925C14.1356 59.9232 13.5969 59.3806 12.9325 59.3806Z" fill="#142256"/>
<path d="M12.9325 64.2278H11.7294C11.065 64.2278 10.5262 64.7704 10.5262 65.4396C10.5262 66.1088 11.065 66.6515 11.7294 66.6515H12.9325C13.5969 66.6515 14.1356 66.1088 14.1356 65.4396C14.1356 64.7704 13.5969 64.2278 12.9325 64.2278Z" fill="#142256"/>
<path d="M18.9481 49.6858H17.745C17.0806 49.6858 16.5419 50.2284 16.5419 50.8976C16.5419 51.5668 17.0806 52.1095 17.745 52.1095H18.9481C19.6125 52.1095 20.1512 51.5668 20.1512 50.8976C20.1512 50.2284 19.6125 49.6858 18.9481 49.6858Z" fill="#142256"/>
<path d="M18.9481 54.5332H17.745C17.0806 54.5332 16.5419 55.0758 16.5419 55.745C16.5419 56.4143 17.0806 56.9569 17.745 56.9569H18.9481C19.6125 56.9569 20.1512 56.4143 20.1512 55.745C20.1512 55.0758 19.6125 54.5332 18.9481 54.5332Z" fill="#142256"/>
<path d="M18.9481 59.3806H17.745C17.0806 59.3806 16.5419 59.9232 16.5419 60.5925C16.5419 61.2617 17.0806 61.8043 17.745 61.8043H18.9481C19.6125 61.8043 20.1512 61.2617 20.1512 60.5925C20.1512 59.9232 19.6125 59.3806 18.9481 59.3806Z" fill="#142256"/>
<path d="M18.9481 64.2278H17.745C17.0806 64.2278 16.5419 64.7704 16.5419 65.4396C16.5419 66.1088 17.0806 66.6515 17.745 66.6515H18.9481C19.6125 66.6515 20.1512 66.1088 20.1512 65.4396C20.1512 64.7704 19.6125 64.2278 18.9481 64.2278Z" fill="#142256"/>
<path d="M61.6598 52.1095H70.6832C71.3476 52.1095 71.8864 51.5668 71.8864 50.8976C71.8864 50.2284 71.3476 49.6858 70.6832 49.6858H61.6598C60.9954 49.6858 60.4567 50.2284 60.4567 50.8976C60.4567 51.5668 60.9954 52.1095 61.6598 52.1095Z" fill="#142256"/>
<path d="M61.6598 56.9569H70.6832C71.3476 56.9569 71.8864 56.4143 71.8864 55.745C71.8864 55.0758 71.3476 54.5332 70.6832 54.5332H61.6598C60.9954 54.5332 60.4567 55.0758 60.4567 55.745C60.4567 56.4143 60.9954 56.9569 61.6598 56.9569Z" fill="#142256"/>
<path d="M61.6598 61.8043H70.6832C71.3476 61.8043 71.8864 61.2617 71.8864 60.5925C71.8864 59.9232 71.3476 59.3806 70.6832 59.3806H61.6598C60.9954 59.3806 60.4567 59.9232 60.4567 60.5925C60.4567 61.2617 60.9954 61.8043 61.6598 61.8043Z" fill="#142256"/>
<path d="M61.6598 66.6515H70.6832C71.3476 66.6515 71.8864 66.1088 71.8864 65.4396C71.8864 64.7704 71.3476 64.2278 70.6832 64.2278H61.6598C60.9954 64.2278 60.4567 64.7704 60.4567 65.4396C60.4567 66.1088 60.9954 66.6515 61.6598 66.6515Z" fill="#142256"/>
<path d="M24.9637 49.6858H23.7606C23.0962 49.6858 22.5575 50.2284 22.5575 50.8976C22.5575 51.5668 23.0962 52.1095 23.7606 52.1095H24.9637C25.6281 52.1095 26.1669 51.5668 26.1669 50.8976C26.1669 50.2284 25.6281 49.6858 24.9637 49.6858Z" fill="#142256"/>
<path d="M24.9637 54.5332H23.7606C23.0962 54.5332 22.5575 55.0758 22.5575 55.745C22.5575 56.4143 23.0962 56.9569 23.7606 56.9569H24.9637C25.6281 56.9569 26.1669 56.4143 26.1669 55.745C26.1669 55.0758 25.6281 54.5332 24.9637 54.5332Z" fill="#142256"/>
<path d="M24.9637 59.3806H23.7606C23.0962 59.3806 22.5575 59.9232 22.5575 60.5925C22.5575 61.2617 23.0962 61.8043 23.7606 61.8043H24.9637C25.6281 61.8043 26.1669 61.2617 26.1669 60.5925C26.1669 59.9232 25.6281 59.3806 24.9637 59.3806Z" fill="#142256"/>
<path d="M24.9637 64.2278H23.7606C23.0962 64.2278 22.5575 64.7704 22.5575 65.4396C22.5575 66.1088 23.0962 66.6515 23.7606 66.6515H24.9637C25.6281 66.6515 26.1669 66.1088 26.1669 65.4396C26.1669 64.7704 25.6281 64.2278 24.9637 64.2278Z" fill="#142256"/>
<path d="M62.9756 40.5962H65.4844L64.256 36.403C64.0234 35.6088 63.4042 34.9888 62.6141 34.76L49.6424 30.9962C49.0021 30.8107 48.3146 30.9005 47.7427 31.2445L38.499 36.8039L29.2552 31.2445C28.6832 30.9005 27.9957 30.8107 27.3555 30.9962L14.3838 34.76C13.5937 34.9888 12.9744 35.6088 12.7419 36.403L11.3357 41.2021H13.8445L15.0498 37.0889L28.0215 33.3252L38.4989 39.6267L48.9763 33.3252L61.948 37.0889L62.9756 40.5962Z" fill="#142256"/>
<path d="M33.0845 47.8674H52.9367V50.2911H33.0845V47.8674Z" fill="#142256"/>
<path d="M33.0845 52.7146H52.9367V55.1383H33.0845V52.7146Z" fill="#142256"/>
</svg>
