<svg width="255" height="509" viewBox="0 0 255 509" fill="none" xmlns="http://www.w3.org/2000/svg">
<path fill-rule="evenodd" clip-rule="evenodd" d="M241.809 0.442749C242.636 0.442749 243.306 1.11321 243.306 1.94026C243.306 26.3943 246.021 51.2788 248.73 76.115C248.939 78.026 249.147 79.9367 249.354 81.8468C252.25 108.545 254.897 135.14 253.836 160.828C252.775 186.533 248.002 211.397 236.018 234.642C224.029 257.897 204.869 279.443 175.172 298.578C161.591 307.328 147.834 314.665 134.341 321.861C129.516 324.434 124.726 326.988 119.989 329.583C101.963 339.459 84.6301 349.958 68.7845 364.378C61.9485 370.599 56.8592 382.016 52.4896 396.13C49.3011 406.429 46.5501 417.964 43.76 429.662C42.7402 433.937 41.7152 438.235 40.6617 442.502C36.7423 458.378 32.4302 473.821 26.5388 485.782C20.6655 497.706 13.0302 506.558 2.26985 508.573C1.45692 508.725 0.674522 508.189 0.522309 507.376C0.370096 506.563 0.905708 505.781 1.71863 505.629C11.0504 503.881 18.1017 496.133 23.852 484.458C29.5843 472.821 33.833 457.666 37.754 441.784C38.7932 437.575 39.8096 433.313 40.8244 429.058C43.6223 417.327 46.4083 405.646 49.6285 395.245C54.001 381.121 59.2759 368.981 66.7688 362.163C82.8801 347.502 100.462 336.867 118.55 326.957C123.349 324.328 128.177 321.753 133.024 319.168C146.485 311.989 160.081 304.738 173.55 296.06C202.86 277.174 221.635 256.005 233.356 233.27C245.082 210.524 249.795 186.122 250.844 160.704C251.894 135.27 249.275 108.886 246.377 82.1698C246.169 80.2504 245.959 78.3293 245.749 76.4068C243.043 51.6059 240.311 26.5649 240.311 1.94026C240.311 1.11321 240.982 0.442749 241.809 0.442749Z" fill="white"/>
</svg>
