<svg width="173" height="259" viewBox="0 0 173 259" fill="none" xmlns="http://www.w3.org/2000/svg">
<path d="M102.912 188.225L89.0791 151.004C87.3853 146.447 83.3864 144.688 80.1644 147.085L45.0602 173.201C41.8389 175.598 40.5955 181.256 42.2898 185.814L56.1225 223.035L57.1121 240.278C57.2208 242.175 57.9892 243.856 59.1679 244.773C60.3398 245.685 61.7436 245.705 62.9239 244.826L111.743 208.506C112.924 207.628 113.708 205.98 113.841 204.098C113.975 202.204 113.432 200.357 112.389 199.153L102.912 188.225ZM56.7232 167.907L70.4715 157.679L74.6462 168.912L60.8979 179.14L56.7232 167.907ZM44.1638 184.418C43.013 181.322 43.8571 177.479 46.0456 175.851L54.8492 169.301L59.5168 181.86C59.7887 182.592 60.4292 182.875 60.9471 182.489L76.5693 170.867C77.0864 170.482 77.2861 169.576 77.0138 168.843L72.3462 156.284L81.1498 149.734C83.3383 148.106 86.0545 149.3 87.2052 152.397L100.644 188.563L57.6048 220.583L44.1638 184.418ZM111.735 203.797C111.672 204.689 111.316 205.438 110.759 205.853L61.9395 242.173C61.3821 242.588 60.7441 242.578 60.1888 242.146C59.627 241.71 59.2751 240.939 59.2228 240.033L58.2725 223.472L101.949 190.977L111.054 201.472C111.552 202.047 111.8 202.894 111.736 203.796L111.735 203.797Z" fill="#DEAE26" fill-opacity="0.3"/>
<path d="M101.943 195.846C101.614 195.399 101.12 195.299 100.716 195.599L61.6612 224.655C61.2573 224.955 61.0349 225.588 61.1092 226.225L62.2523 236.009C62.3082 236.484 62.5215 236.892 62.8255 237.106C63.1299 237.321 63.489 237.315 63.7901 237.091L106.751 205.129C107.052 204.905 107.259 204.49 107.307 204.013C107.354 203.536 107.238 203.057 106.993 202.723L101.943 195.846ZM64.1022 233.474L63.3231 226.804L101.025 198.755L104.468 203.443L64.1022 233.474Z" fill="#DEAE26" fill-opacity="0.3"/>
<path d="M87.4108 166.505L52.2608 192.656C51.7437 193.04 51.544 193.947 51.8163 194.679L59.0408 214.119C59.3127 214.85 59.9532 215.133 60.4711 214.747L95.6211 188.597C96.1382 188.212 96.3379 187.306 96.0656 186.573L88.8411 167.134C88.568 166.402 87.9279 166.12 87.4108 166.505ZM64.4067 208.433L60.4225 211.398L57.7954 204.329L61.7797 201.365L64.4067 208.433ZM60.7942 198.713L56.81 201.677L54.1832 194.609L58.1675 191.645L60.7942 198.713ZM70.2649 204.075L66.2807 207.039L63.6536 199.971L67.6379 197.006L70.2649 204.075ZM66.6524 194.355L62.6682 197.319L60.0414 190.251L64.0257 187.287L66.6524 194.355ZM76.1239 199.716L72.1396 202.68L69.5126 195.612L73.4969 192.648L76.1239 199.716ZM72.5114 189.996L68.5271 192.96L65.9004 185.892L69.8847 182.928L72.5114 189.996ZM81.9821 195.358L77.9978 198.322L75.3708 191.253L79.3551 188.289L81.9821 195.358ZM78.3696 185.638L74.3853 188.602L71.7586 181.534L75.7429 178.57L78.3696 185.638ZM87.8403 191L83.856 193.964L81.229 186.895L85.2133 183.931L87.8403 191ZM84.2278 181.279L80.2435 184.243L77.6168 177.176L81.6011 174.211L84.2278 181.279ZM93.6985 186.641L89.7142 189.605L87.0872 182.537L91.0715 179.573L93.6985 186.641ZM90.086 176.921L86.1018 179.885L83.475 172.817L87.4593 169.853L90.086 176.921Z" fill="#DEAE26" fill-opacity="0.3"/>
<path d="M10.0924 110.757C9.74238 111.42 9.83803 112.358 10.3065 112.853C10.775 113.348 11.438 113.213 11.7881 112.55C13.1311 110.009 15.5049 106.405 19.1888 103.664C21.2222 102.151 24.4973 100.301 28.5579 100.074C28.7208 100.065 28.8736 100.005 29.0085 99.9044C29.3587 99.6438 29.5913 99.1155 29.574 98.5187C29.5511 97.692 29.0591 97.0487 28.4747 97.0811C24.0197 97.3299 20.4305 99.3554 18.204 101.012C14.1692 104.014 11.5658 107.968 10.0923 110.757L10.0924 110.757Z" fill="#DEAE26" fill-opacity="0.3"/>
<path d="M31.5692 105.413C27.1142 105.662 23.525 107.687 21.2985 109.344C17.265 112.344 14.6618 116.298 13.1879 119.087C12.8378 119.75 12.9335 120.688 13.4012 121.183C13.7392 121.54 14.1784 121.57 14.5286 121.31C14.6635 121.209 14.7853 121.066 14.8828 120.881C16.2258 118.339 18.6002 114.734 22.2835 111.994C24.3169 110.481 27.5928 108.631 31.6526 108.404C32.2377 108.371 32.6923 107.675 32.6687 106.849C32.6459 106.025 32.1527 105.381 31.5691 105.413L31.5692 105.413Z" fill="#DEAE26" fill-opacity="0.3"/>
<path d="M34.6655 113.744C30.2105 113.993 26.6212 116.018 24.3948 117.675C20.3613 120.676 17.7581 124.63 16.2846 127.419C15.9345 128.082 16.0302 129.02 16.4986 129.515C16.9671 130.01 17.6302 129.875 17.9802 129.212C19.3232 126.671 21.6971 123.067 25.3809 120.326C27.4143 118.813 30.6894 116.963 34.75 116.736C34.9129 116.727 35.0657 116.667 35.2006 116.566C35.5508 116.306 35.7834 115.777 35.7661 115.181C35.7418 114.355 35.249 113.712 34.6654 113.744L34.6655 113.744Z" fill="#DEAE26" fill-opacity="0.3"/>
<path d="M37.7618 122.076C33.3067 122.324 29.7175 124.35 27.4911 126.006C23.4576 129.007 20.8544 132.961 19.3804 135.749C19.0304 136.412 19.1261 137.35 19.5938 137.846C20.0622 138.342 20.7253 138.206 21.0757 137.544C22.4187 135.003 24.7932 131.398 28.4764 128.658C30.5098 127.145 33.7857 125.295 37.8456 125.068C38.0085 125.059 38.1612 124.999 38.2961 124.898C38.6463 124.638 38.879 124.11 38.8617 123.513C38.8381 122.687 38.3452 122.044 37.7616 122.076L37.7618 122.076Z" fill="#DEAE26" fill-opacity="0.3"/>
<path d="M37.6916 132.422C35.4241 133.064 33.1457 134.208 31.1041 135.727C29.0274 137.272 27.1234 139.225 25.4453 141.533C25.0258 142.109 25.0162 143.058 25.4239 143.651C25.8316 144.244 26.501 144.258 26.9208 143.681C28.4535 141.573 30.1923 139.79 32.0894 138.378C34.4801 136.657 36.5929 135.711 38.393 135.216C38.7976 134.915 39.0319 134.263 38.9379 133.595C38.8222 132.785 38.2645 132.259 37.6914 132.422L37.6916 132.422Z" fill="#DEAE26" fill-opacity="0.3"/>
<path d="M155.661 112.428L118.726 69.8536C118.412 69.4913 117.979 69.4149 117.611 69.6562C112.984 72.6976 108.843 77.2764 105.633 82.8928C102.532 88.3201 100.278 94.7566 99.0971 101.55C98.8375 101.727 98.5803 101.91 98.324 102.098L81.661 57.2644C81.3891 56.5328 80.7486 56.2503 80.2307 56.6355L57.7333 73.373L55.6469 67.7563C55.4588 67.2502 55.0838 66.9398 54.68 66.9563C49.5756 67.1619 44.4912 69.047 39.9765 72.4058C35.6138 75.6516 31.7514 80.2974 28.7775 85.8701C23.8474 86.179 18.9527 88.047 14.5899 91.2927C10.0752 94.6515 6.09538 99.5113 3.08289 105.343C2.84366 105.805 2.81186 106.418 2.99993 106.924L25.1899 166.632C25.3599 167.089 25.6851 167.391 26.049 167.429C26.4134 167.467 26.7659 167.236 26.9816 166.818C29.805 161.352 33.5333 156.799 37.765 153.651C41.9958 150.503 46.7602 148.738 51.5441 148.544C51.8532 148.542 52.1253 148.322 52.369 147.931C55.1923 142.464 58.9206 137.911 63.1523 134.763C65.1306 133.291 67.2267 132.126 69.3853 131.278L72.1695 138.77C72.4415 139.501 73.0819 139.784 73.5998 139.398L80.9177 133.954C80.8619 134.475 81.0017 135.002 81.2932 135.338L118.228 177.913C118.511 178.241 118.894 178.337 119.24 178.168C119.292 178.143 119.342 178.112 119.389 178.077C119.659 177.876 119.858 177.515 119.928 177.087C121.001 170.473 123.158 164.196 126.167 158.932C129.175 153.669 133.057 149.381 137.391 146.528C137.687 146.332 137.903 145.956 137.976 145.505C139.05 138.893 141.206 132.616 144.215 127.35C147.223 122.087 151.105 117.8 155.439 114.947C155.771 114.731 155.998 114.286 156.043 113.775C156.087 113.264 155.942 112.756 155.66 112.429L155.661 112.428ZM49.809 145.68C45.2727 146.188 40.8001 148.007 36.7794 150.998C32.7587 153.99 29.1629 158.171 26.2964 163.169L24.7966 159.134C27.5693 153.997 31.1476 149.711 35.1847 146.707C39.2225 143.703 43.7459 141.962 48.308 141.641L49.809 145.68ZM47.2289 138.737C42.6926 139.246 38.2196 141.064 34.1989 144.055C30.1775 147.047 26.5836 151.23 23.7172 156.229L5.1845 106.365C7.95684 101.23 11.5371 96.9463 15.5742 93.9428C19.612 90.9388 24.1354 89.1978 28.6975 88.8762L47.2289 138.737ZM73.169 114.903L89.8465 102.496C90.3636 102.111 90.5633 101.205 90.291 100.472C90.0191 99.7404 89.3786 99.4579 88.8607 99.8432L72.1832 112.251L69.5565 105.183L86.234 92.7753C86.7511 92.3906 86.9508 91.4844 86.6785 90.7517C86.4066 90.02 85.7661 89.7375 85.2482 90.1228L68.5707 102.53L65.9437 95.4617L82.6212 83.0541C83.1383 82.6694 83.338 81.7632 83.0657 81.0305C82.7938 80.2988 82.1533 80.0163 81.6354 80.4016L64.9579 92.8092L62.332 85.7435L79.0095 73.3359C79.5266 72.9512 79.7263 72.045 79.454 71.3122C79.1821 70.5806 78.5416 70.2981 78.0237 70.6834L61.3462 83.091L58.7199 76.0242L80.2787 59.985L96.4726 103.559C93.7182 105.896 91.1969 108.796 89.0177 112.133L75.7947 121.97L73.169 114.903ZM30.5718 87.4831C33.3445 82.3466 36.9232 78.0611 40.9603 75.0576C44.9974 72.0542 49.5211 70.3089 54.0824 69.9877L72.6143 119.853C68.078 120.361 63.605 122.179 59.5843 125.17C55.5636 128.161 51.969 132.346 49.1025 137.345L30.5718 87.4831ZM62.1646 132.113C58.1439 135.104 54.5493 139.289 51.6824 144.286L50.1814 140.248C52.9541 135.111 56.5328 130.826 60.5699 127.822C64.6077 124.818 69.1311 123.077 73.6936 122.757L75.1934 126.792C70.6579 127.3 66.1853 129.122 62.1646 132.113ZM73.5483 136.05L71.505 130.553C73.2915 130.034 75.1083 129.732 76.9283 129.659C77.2938 129.644 77.6275 129.365 77.8124 128.918C77.9965 128.471 78.0055 127.922 77.8354 127.465L76.7799 124.624L85.7953 117.917C84.0341 121.645 82.6395 125.731 81.6718 130.007L73.5483 136.05ZM113.988 169.165L83.1461 133.613C84.2646 127.332 86.3599 121.384 89.2313 116.36C92.1009 111.338 95.7669 107.206 99.8622 104.361L130.707 139.915C126.683 142.919 123.083 147.095 120.224 152.099C117.366 157.1 115.23 162.96 113.988 169.164L113.988 169.165ZM124.519 157.051C121.661 162.052 119.523 167.909 118.28 174.113L115.787 171.239C116.906 164.957 118.999 159.009 121.871 153.984C124.741 148.962 128.408 144.832 132.502 141.985L135.002 144.867C130.98 147.871 127.379 152.046 124.519 157.051L124.519 157.051ZM132.037 137.584L101.196 102.034C102.314 95.7521 104.408 89.8037 107.28 84.7789C110.149 79.7574 113.815 75.6239 117.909 72.7774L148.756 108.336C144.734 111.339 141.133 115.515 138.273 120.52C135.415 125.521 133.279 131.38 132.037 137.584L132.037 137.584ZM142.567 125.469C139.709 130.471 137.573 136.33 136.331 142.534L133.836 139.657C134.954 133.375 137.047 127.427 139.919 122.402C142.789 117.38 146.455 113.251 150.55 110.403L153.048 113.282C149.027 116.287 145.427 120.465 142.567 125.469L142.567 125.469Z" fill="#DEAE26" fill-opacity="0.3"/>
<path d="M37.1743 93.6651C39.6075 89.061 42.5416 86.2915 44.575 84.7786C48.2583 82.0384 51.703 81.3139 53.9441 81.1888C54.1071 81.1793 54.2598 81.1195 54.3947 81.0191C54.7449 80.7586 54.9776 80.2302 54.9603 79.6335C54.9374 78.8067 54.4453 78.1635 53.861 78.1958C51.4016 78.3325 47.6237 79.1258 43.5903 82.1265C41.3638 83.783 38.1496 86.8175 35.4801 91.8707C35.13 92.5335 35.2257 93.4717 35.6941 93.9669C36.1599 94.4628 36.8241 94.328 37.1742 93.6652L37.1743 93.6651Z" fill="#DEAE26" fill-opacity="0.3"/>
<path d="M39.9157 102.424C40.0505 102.324 40.1731 102.18 40.2698 101.995C42.7031 97.3908 45.6371 94.6212 47.6705 93.1084C51.3538 90.3682 54.798 89.6441 57.0397 89.5186C57.624 89.4862 58.0786 88.79 58.0554 87.9622C58.0325 87.1354 57.5405 86.4922 56.9554 86.5251C54.496 86.6618 50.7178 87.4567 46.685 90.4569C44.4586 92.1134 41.2444 95.1479 38.5748 100.201C38.2248 100.864 38.3204 101.802 38.7889 102.297C39.1259 102.656 39.5654 102.685 39.9156 102.424L39.9157 102.424Z" fill="#DEAE26" fill-opacity="0.3"/>
<path d="M43.3665 110.327C45.7997 105.723 48.7337 102.953 50.7672 101.44C54.4504 98.7 57.8952 97.9755 60.1363 97.8504C60.2992 97.8409 60.452 97.7811 60.5869 97.6807C60.9371 97.4202 61.1697 96.8919 61.1524 96.2951C61.1295 95.4683 60.6375 94.8251 60.0531 94.8574C57.5938 94.9942 53.8159 95.7874 49.7824 98.7882C47.5559 100.445 44.3417 103.479 41.6722 108.532C41.3222 109.195 41.4178 110.133 41.8863 110.629C42.3525 111.125 43.0163 110.99 43.3663 110.327L43.3665 110.327Z" fill="#DEAE26" fill-opacity="0.3"/>
<path d="M63.2319 106.182C63.3941 106.173 63.5476 106.113 63.6825 106.013C64.0327 105.752 64.2653 105.224 64.248 104.627C64.2251 103.8 63.7331 103.157 63.148 103.19C60.6886 103.327 56.9104 104.122 52.8777 107.122C50.6512 108.778 47.437 111.813 44.7675 116.866C44.4174 117.529 44.5131 118.467 44.9815 118.962C45.45 119.457 46.1131 119.322 46.4631 118.659C48.8963 114.055 51.8304 111.286 53.8638 109.773C57.5459 107.032 60.9908 106.307 63.2318 106.183L63.2319 106.182Z" fill="#DEAE26" fill-opacity="0.3"/>
<path d="M63.4934 116.471C64.0676 116.309 64.4391 115.52 64.3242 114.709C64.2093 113.899 63.6523 113.372 63.0789 113.534C60.784 114.182 58.5674 115.294 56.4907 116.839C54.4483 118.359 52.4919 120.366 50.8326 122.645C50.4131 123.221 50.4031 124.169 50.8105 124.763C51.1451 125.252 51.6575 125.348 52.0629 125.047C53.4983 123.194 55.3462 121.343 57.4772 119.491C59.3724 118.08 61.3976 117.064 63.4932 116.472L63.4934 116.471Z" fill="#DEAE26" fill-opacity="0.3"/>
<path d="M97.4014 70.2915C97.8892 70.8464 98.3893 70.7691 98.8995 70.1943L104.126 62.063L106.612 65.2827C107.085 65.7118 107.586 65.644 108.11 65.1856L118.508 49.0095C118.9 48.3988 118.87 47.4539 118.44 46.8963L102.092 25.7244C101.885 25.456 101.61 25.3148 101.328 25.333C101.047 25.3513 100.783 25.5273 100.594 25.8215L95.3674 33.9528L92.8811 30.7331C92.6738 30.4647 92.3988 30.3235 92.1173 30.3418C91.8359 30.36 91.5722 30.536 91.3829 30.8303L80.9854 47.0063C80.5931 47.6171 80.6237 48.5619 81.0535 49.1195L97.4014 70.2915ZM101.446 28.9488L116.231 48.0992L107.258 62.0581L105.55 59.8459L109.297 54.0185C109.689 53.4078 109.659 52.463 109.229 51.9053L96.9292 35.9751L101.446 28.9488ZM92.2346 33.9566L107.02 53.1071L98.0469 67.066L83.2616 47.9156L92.2346 33.9566Z" fill="#DEAE26" fill-opacity="0.3"/>
<path d="M105.629 115.203C105.174 114.683 104.507 114.783 104.14 115.426L91.6449 137.29C91.2773 137.934 91.3481 138.877 91.8026 139.396C92.1419 139.784 92.5981 139.827 92.9618 139.557L105.787 117.308C106.154 116.666 106.083 115.723 105.629 115.203L105.629 115.203Z" fill="#DEAE26" fill-opacity="0.3"/>
<path d="M110.782 121.143C110.327 120.623 109.661 120.723 109.294 121.366L96.7985 143.23C96.4309 143.874 96.5018 144.817 96.9562 145.336C97.2955 145.724 97.7518 145.767 98.1154 145.496L110.941 123.248C111.307 122.606 111.237 121.663 110.782 121.143L110.782 121.143Z" fill="#DEAE26" fill-opacity="0.3"/>
<path d="M123.669 135.998L116.798 128.077C116.58 127.826 116.3 127.707 116.02 127.749C115.74 127.79 115.483 127.988 115.306 128.298L102.81 150.162C102.444 150.803 102.513 151.744 102.965 152.264L109.836 160.186C110.304 160.564 110.861 160.545 111.328 159.967L123.823 138.103C124.19 137.46 124.122 136.52 123.669 135.998L123.669 135.998ZM110.35 156.913L105.12 150.884L116.284 131.35L121.514 137.378L110.35 156.913Z" fill="#DEAE26" fill-opacity="0.3"/>
<path d="M123.679 83.6223C123.224 83.1021 122.557 83.2024 122.19 83.8454L109.695 105.709C109.327 106.353 109.398 107.296 109.852 107.815C110.192 108.203 110.648 108.246 111.012 107.976L123.837 85.7275C124.203 85.085 124.133 84.1429 123.678 83.6222L123.679 83.6223Z" fill="#DEAE26" fill-opacity="0.3"/>
<path d="M128.832 89.5619C128.377 89.0417 127.711 89.142 127.344 89.785L114.848 111.649C114.481 112.293 114.552 113.236 115.006 113.755C115.345 114.143 115.802 114.186 116.165 113.915L128.991 91.667C129.357 91.0256 129.287 90.0819 128.832 89.5618L128.832 89.5619Z" fill="#DEAE26" fill-opacity="0.3"/>
<path d="M141.719 104.418L134.848 96.4961C134.629 96.244 134.35 96.1263 134.069 96.168C133.79 96.2091 133.533 96.4068 133.355 96.7167L127.803 106.434C127.436 107.076 127.505 108.016 127.957 108.537L134.828 116.458C135.046 116.709 135.326 116.828 135.607 116.786C135.742 116.767 135.871 116.711 135.99 116.622C136.116 116.529 136.229 116.399 136.321 116.239L141.875 106.521C142.24 105.879 142.171 104.938 141.719 104.418L141.719 104.418ZM135.342 113.185L130.113 107.157L134.335 99.7695L139.565 105.798L135.342 113.185Z" fill="#DEAE26" fill-opacity="0.3"/>
<path d="M128.231 113.05C127.776 112.53 127.109 112.63 126.742 113.273L122.578 120.561C122.21 121.205 122.281 122.148 122.735 122.667C123.075 123.055 123.531 123.098 123.895 122.827C124.018 122.735 124.131 122.607 124.225 122.443L128.389 115.156C128.757 114.514 128.686 113.57 128.231 113.05L128.231 113.05Z" fill="#DEAE26" fill-opacity="0.3"/>
<path d="M130.178 117.234L126.013 124.522C125.645 125.166 125.716 126.109 126.171 126.628C126.51 127.016 126.966 127.059 127.33 126.788C127.454 126.696 127.567 126.568 127.66 126.404L131.825 119.117C132.192 118.473 132.121 117.53 131.667 117.011C131.212 116.492 130.547 116.591 130.178 117.234L130.178 117.234Z" fill="#DEAE26" fill-opacity="0.3"/>
</svg>
