<svg width="299" height="203" viewBox="0 0 299 203" fill="none" xmlns="http://www.w3.org/2000/svg">
<path d="M138.324 174.375V124.585C138.324 118.488 131.72 113.527 123.602 113.527H35.1448C27.0278 113.527 20.4225 118.487 20.4225 124.585V174.375L9.72579 193.217C8.54855 195.29 8.83204 197.651 10.4862 199.531C12.131 201.399 14.8873 202.515 17.8615 202.515H140.878C143.852 202.515 146.61 201.399 148.253 199.531C149.908 197.651 150.191 195.291 149.016 193.217L138.324 174.375ZM62.0519 117.072H96.6954V132.098H62.0519V117.072ZM25.146 124.583C25.146 120.441 29.6316 117.072 35.1462 117.072H57.3299V133.872C57.3299 134.851 58.387 135.647 59.6919 135.647H99.0574C100.36 135.647 101.419 134.853 101.419 133.872V117.072H123.603C129.118 117.072 133.603 120.441 133.603 124.583L133.6 172.962H25.1472L25.146 124.583ZM144.317 197.574C143.538 198.459 142.286 198.967 140.881 198.967H17.8647C16.4602 198.967 15.2079 198.459 14.4287 197.574C13.6401 196.678 13.5105 195.596 14.072 194.606L24.3462 176.509H134.404L144.678 194.606C145.24 195.596 145.108 196.678 144.32 197.574H144.317Z" fill="#EFBD2F"/>
<path d="M130.821 181.607C130.5 180.882 129.596 180.391 128.579 180.391H30.1675C29.1498 180.391 28.2467 180.881 27.9256 181.607L23.0045 192.751C22.7661 193.293 22.8881 193.886 23.3312 194.347C23.7744 194.81 24.4878 195.084 25.2464 195.084H133.502C134.26 195.084 134.972 194.81 135.417 194.347C135.86 193.885 135.982 193.291 135.744 192.751L130.821 181.607ZM28.5159 191.537L31.8712 183.94H126.875L130.23 191.537H28.5159Z" fill="#EFBD2F"/>
<path d="M123.659 139.528H35.0866C33.7836 139.528 32.7246 140.322 32.7246 141.302V167.307C32.7246 168.285 33.7817 169.081 35.0866 169.081H123.659C124.962 169.081 126.021 168.287 126.021 167.307V141.302C126.019 140.322 124.962 139.528 123.659 139.528ZM47.4878 165.533H37.4481V156.077H47.4878V165.533ZM47.4878 152.529H37.4481V143.075H47.4878V152.529ZM62.2495 165.533H52.2099V156.077H62.2495V165.533ZM62.2495 152.529H52.2099V143.075H62.2495V152.529ZM77.0131 165.533H66.9735V156.077H77.0131V165.533ZM77.0131 152.529H66.9735V143.075H77.0131V152.529ZM91.7748 165.533H81.7352V156.077H91.7748V165.533ZM91.7748 152.529H81.7352V143.075H91.7748V152.529ZM106.537 165.533H96.4969V156.077H106.537V165.533ZM106.537 152.529H96.4969V143.075H106.537V152.529ZM121.298 165.533H111.259V156.077H121.298V165.533ZM121.298 152.529H111.259V143.075H121.298V152.529Z" fill="#EFBD2F"/>
<path d="M11.9287 20.8245C10.7514 21.2462 10.252 22.3039 10.8134 23.1882C11.3748 24.0724 12.783 24.4476 13.9603 24.0259C18.4759 22.4097 25.8062 20.4832 35.0888 20.4832C40.2127 20.4832 48.0351 21.0981 56.2174 24.0259C56.546 24.143 56.8915 24.1994 57.2313 24.1994C58.1138 24.1994 58.9606 23.8271 59.3643 23.1882C59.9257 22.3039 59.4263 21.2462 58.249 20.8245C49.2721 17.6119 40.7009 16.9362 35.0906 16.9362C24.9236 16.9362 16.8835 19.0502 11.9283 20.8245L11.9287 20.8245Z" fill="#EFBD2F"/>
<path d="M58.245 31.9686C49.2681 28.756 40.6969 28.0803 35.0866 28.0803C24.9229 28.0803 16.8833 30.1943 11.9282 31.9672C10.7509 32.3889 10.2515 33.4466 10.811 34.3308C11.2166 34.9683 12.0615 35.342 12.944 35.342C13.2838 35.342 13.6293 35.287 13.9579 35.1686C18.4735 33.5523 25.8053 31.6259 35.0865 31.6259C40.2103 31.6259 48.0346 32.2408 56.215 35.1686C57.3942 35.5903 58.8024 35.2151 59.3619 34.3309C59.9215 33.4494 59.4201 32.3903 58.2447 31.9686L58.245 31.9686Z" fill="#EFBD2F"/>
<path d="M58.2451 43.1134C49.2682 39.9008 40.697 39.225 35.0866 39.225C24.923 39.225 16.8834 41.3391 11.9282 43.1134C10.751 43.5351 10.2515 44.5928 10.8129 45.4771C11.3743 46.3613 12.7825 46.7365 13.9598 46.3148C18.4754 44.6986 25.8058 42.7721 35.0884 42.7721C40.2122 42.7721 48.0346 43.387 56.2169 46.3148C56.5455 46.4318 56.891 46.4882 57.2309 46.4882C58.1133 46.4882 58.9601 46.1159 59.3638 45.4771C59.9215 44.5928 59.4201 43.5351 58.2448 43.1134L58.2451 43.1134Z" fill="#EFBD2F"/>
<path d="M58.245 54.2587C49.2681 51.046 40.6969 50.3703 35.0866 50.3703C24.9229 50.3703 16.8833 52.4843 11.9282 54.2572C10.7509 54.6789 10.2515 55.7366 10.811 56.6209C11.3724 57.5051 12.7806 57.8803 13.9579 57.46C18.4735 55.8438 25.8053 53.9173 35.0865 53.9173C40.2103 53.9173 48.0346 54.5322 56.215 57.46C56.5436 57.5771 56.8891 57.6335 57.229 57.6335C58.1114 57.6335 58.9582 57.2612 59.3619 56.6223C59.9215 55.738 59.4201 54.6803 58.2447 54.2586L58.245 54.2587Z" fill="#EFBD2F"/>
<path d="M50.516 65.0464C45.5685 63.952 40.2322 63.3738 35.0876 63.3738C29.8546 63.3738 24.663 63.9365 19.6573 65.0464C18.4068 65.3228 17.6915 66.31 18.0614 67.2493C18.4312 68.1886 19.7418 68.7258 20.9942 68.448C25.5661 67.434 30.3071 66.9207 35.0873 66.9207C41.0692 66.9813 45.934 67.6371 49.8509 68.5214C50.8704 68.5214 51.8111 68.0207 52.1153 67.2479C52.4814 66.3086 51.766 65.3228 50.5156 65.0464H50.516Z" fill="#EFBD2F"/>
<path d="M298.058 136.069L256.383 62.6564C256.028 62.0316 255.23 61.6142 254.327 61.5803C242.962 61.16 231.428 62.7297 220.972 66.1131C210.867 69.3822 201.696 74.3704 194.381 80.5686C193.739 80.5517 193.097 80.5432 192.453 80.5404L192.451 20.5651C192.451 19.5864 191.394 18.791 190.089 18.791H133.399L133.401 11.2782C133.401 10.6012 132.889 9.98351 132.079 9.68591C121.852 5.92175 110.433 3.93317 99.0564 3.93317C88.0631 3.93317 77.0303 5.79052 67.0715 9.31188C57.1126 5.79178 46.0799 3.93317 35.0866 3.93317C23.7102 3.93317 12.2886 5.92309 2.06345 9.68591C1.25233 9.98349 0.739746 10.6012 0.739746 11.2782V91.1501C0.739746 91.7622 1.16033 92.332 1.85128 92.6549C2.54224 92.9793 3.40782 93.0117 4.14007 92.7424C13.7236 89.2152 24.4236 87.3507 35.0867 87.3507C45.7479 87.3507 56.448 89.2151 66.0334 92.7424C66.6454 92.9807 67.3439 92.9624 68.1119 92.7424C77.6954 89.2152 88.3954 87.3507 99.0585 87.3507C104.043 87.3507 109.036 87.7639 113.92 88.5579V98.5795C113.92 99.5583 114.977 100.354 116.282 100.354H134.721C134.23 100.856 134.119 101.517 134.447 102.097L176.122 175.51C176.442 176.074 177.127 176.473 177.934 176.566C178.054 176.58 178.177 176.587 178.295 176.587C178.976 176.587 179.634 176.365 180.086 175.97C187.056 169.876 195.92 164.979 205.721 161.809C215.52 158.638 226.329 157.172 236.977 157.561C237.706 157.586 238.408 157.361 238.883 156.944C245.852 150.852 254.715 145.955 264.518 142.784C274.317 139.613 285.124 138.146 295.774 138.536C296.587 138.568 297.362 138.279 297.826 137.778C298.286 137.278 298.374 136.632 298.057 136.069L298.058 136.069ZM64.71 88.3874C55.3822 85.3835 45.2186 83.8026 35.0871 83.8026C24.9556 83.8026 14.7901 85.3807 5.4642 88.3845V82.9859C14.7059 79.7648 24.9143 78.0625 35.0871 78.0625C45.2618 78.0625 55.4683 79.7647 64.71 82.9845V88.3874ZM64.71 79.1005C55.3822 76.0965 45.2186 74.5142 35.0871 74.5142C24.9537 74.5142 14.7901 76.0966 5.4642 79.1005L5.46232 12.3955C14.7021 9.17574 24.9124 7.47779 35.0852 7.47779C45.2599 7.47779 55.4664 9.18 64.7081 12.3998L64.71 79.1005ZM133.402 74.3478H175.426C176.729 74.3478 177.788 73.5538 177.788 72.5736C177.788 71.5949 176.731 70.7995 175.426 70.7995H133.402V61.3446H175.426C176.729 61.3446 177.788 60.5506 177.788 59.5705C177.788 58.5917 176.731 57.7963 175.426 57.7963H133.402V48.3404H175.426C176.729 48.3404 177.788 47.5464 177.788 46.5662C177.788 45.5875 176.731 44.7921 175.426 44.7921H133.402V35.3402H175.426C176.729 35.3402 177.788 34.5462 177.788 33.566C177.788 32.5873 176.731 31.7918 175.426 31.7918H133.402V22.3385H187.727V80.6277C180.575 80.9295 173.47 82.0028 166.72 83.8009H133.4L133.402 74.3478ZM69.4301 12.4012C78.6719 9.18011 88.8802 7.47923 99.053 7.47923C109.226 7.47923 119.436 9.17722 128.676 12.3969V79.1019C119.348 76.098 109.184 74.5157 99.053 74.5157C88.9216 74.5157 78.756 76.098 69.4301 79.1019V12.4012ZM99.053 83.8033C88.9216 83.8033 78.756 85.3857 69.4301 88.3881V82.9852C78.6719 79.7641 88.8802 78.0632 99.053 78.0632C109.228 78.0632 119.434 79.7654 128.676 82.9866V88.3852C119.35 85.3813 109.184 83.8033 99.053 83.8033ZM118.636 96.8049V89.4503C122.544 90.2993 126.351 91.3993 129.998 92.7419C130.73 93.0113 131.594 92.9788 132.287 92.6545C132.977 92.3301 133.398 91.7617 133.398 91.1497V87.3505H156.115C149.904 89.8834 144.153 93.0791 139.106 96.8053L118.636 96.8049ZM174.172 163.037L139.371 101.733C146.187 96.0229 154.687 91.4237 164.041 88.3971C173.389 85.372 183.658 83.8997 193.829 84.1113L228.634 145.419C218.488 145.43 208.316 147 199.002 150.014C189.691 153.028 181.176 157.502 174.173 163.036L174.172 163.037ZM203.848 158.552C194.537 161.565 186.02 166.036 179.014 171.569L176.202 166.613C183.018 160.902 191.513 156.3 200.87 153.273C210.22 150.248 220.488 148.779 230.66 148.988L233.48 153.958C223.335 153.969 213.164 155.537 203.848 158.553L203.848 158.552ZM232.969 144.013L198.17 82.713C204.986 77.0014 213.482 72.3996 222.838 69.3731C232.186 66.348 242.455 64.8742 252.624 65.0829L287.431 126.398C277.288 126.409 267.115 127.977 257.799 130.993C248.488 134.005 239.973 138.48 232.97 144.014L232.969 144.013ZM262.644 139.527C253.333 142.541 244.819 147.016 237.815 152.548L234.999 147.588C241.815 141.877 250.312 137.275 259.667 134.248C269.017 131.223 279.283 129.754 289.457 129.962L292.275 134.927C282.132 134.941 271.961 136.513 262.644 139.527H262.644Z" fill="#EFBD2F"/>
<path d="M77.9283 24.0273C86.1092 21.0995 93.933 20.4846 99.0569 20.4846C108.338 20.4846 115.67 22.4111 120.185 24.0273C120.514 24.1444 120.859 24.2008 121.199 24.2008C122.082 24.2008 122.929 23.8285 123.332 23.1896C123.894 22.3053 123.394 21.2476 122.217 20.8259C117.262 19.0518 109.222 16.9376 99.0586 16.9376C93.4483 16.9376 84.8771 17.6117 75.9002 20.8259C74.7229 21.2476 74.2235 22.3053 74.7849 23.1896C75.3406 24.0724 76.7507 24.449 77.928 24.0273L77.9283 24.0273Z" fill="#EFBD2F"/>
<path d="M76.9141 35.3435C77.2539 35.3435 77.6013 35.2885 77.928 35.1701C86.1089 32.2423 93.9327 31.6274 99.0566 31.6274C108.338 31.6274 115.668 33.5539 120.185 35.1701C121.362 35.5918 122.771 35.2166 123.332 34.331C123.893 33.4467 123.394 32.389 122.215 31.9673C117.26 30.1931 109.218 28.0804 99.0564 28.0804C93.4461 28.0804 84.8749 28.7545 75.898 31.9687C74.7208 32.3904 74.2213 33.4482 74.7827 34.3324C75.1845 34.9713 76.0313 35.3436 76.9138 35.3436L76.9141 35.3435Z" fill="#EFBD2F"/>
<path d="M77.9283 46.3159C86.1092 43.3881 93.933 42.7732 99.0569 42.7732C108.338 42.7732 115.67 44.6997 120.185 46.3159C120.514 46.4329 120.859 46.4893 121.199 46.4893C122.082 46.4893 122.929 46.117 123.332 45.4782C123.894 44.5939 123.394 43.5362 122.217 43.1145C117.262 41.3403 109.222 39.2261 99.0586 39.2261C93.4483 39.2261 84.8771 39.9003 75.9002 43.1145C74.7229 43.5362 74.2235 44.5939 74.7849 45.4782C75.3406 46.3624 76.7507 46.7376 77.928 46.3159L77.9283 46.3159Z" fill="#EFBD2F"/>
<path d="M120.184 57.461C120.51 57.578 120.858 57.6344 121.197 57.6344C122.08 57.6344 122.927 57.2621 123.33 56.6233C123.892 55.739 123.392 54.6813 122.213 54.2596C117.258 52.4854 109.217 50.3727 99.0548 50.3727C93.4445 50.3727 84.8733 51.0468 75.8964 54.261C74.7192 54.6827 74.2197 55.7405 74.7811 56.6247C75.3425 57.509 76.7507 57.8841 77.928 57.4624C86.1089 54.5346 93.9327 53.9197 99.0566 53.9197C108.336 53.9183 115.668 55.8448 120.183 57.461L120.184 57.461Z" fill="#EFBD2F"/>
<path d="M113.151 68.4474C114.404 68.7252 115.716 68.1879 116.084 67.2486C116.452 66.3093 115.739 65.3236 114.488 65.0457C109.483 63.9358 104.291 63.3731 99.0579 63.3731C93.9115 63.3731 88.577 63.9513 83.6296 65.0457C82.3791 65.3221 81.6637 66.3079 82.0317 67.2486C82.334 68.0214 83.2747 68.5221 84.2961 68.5221C88.4888 67.6999 93.4946 67.2006 99.0597 66.9214C103.836 66.92 108.579 67.4348 113.151 68.4474H113.151Z" fill="#EFBD2F"/>
<path d="M213.966 46.4891C214.522 47.451 215.566 47.7598 216.995 47.5553L233.277 43.1088L235.823 48.4214C236.441 49.2394 237.481 49.5595 238.852 49.4876L271.244 40.6422C272.467 40.308 273.099 39.294 272.66 38.3745L255.921 3.44139C255.709 2.99854 255.27 2.6361 254.701 2.43583C254.132 2.23557 253.482 2.21442 252.893 2.37519L236.61 6.82171L234.064 1.50906C233.852 1.06622 233.413 0.703773 232.844 0.503506C232.275 0.303243 231.625 0.28209 231.036 0.442863L198.643 9.28824C197.421 9.62248 196.788 10.6365 197.227 11.556L213.966 46.4891ZM252.28 6.31668L267.417 37.9131L239.464 45.5458L237.716 41.896L249.387 38.7102C250.609 38.3759 251.242 37.3619 250.803 36.4425L238.21 10.1587L252.28 6.31668ZM230.423 4.38315L245.56 35.9796L217.607 43.6122L202.469 12.0158L230.423 4.38315Z" fill="#EFBD2F"/>
<path d="M197.258 99.9693C196.742 99.0695 195.352 98.6549 194.156 99.0428L153.45 112.213C152.252 112.601 151.7 113.645 152.216 114.543C152.601 115.214 153.47 115.615 154.387 115.615L196.026 102.299C197.222 101.912 197.774 100.869 197.258 99.9691L197.258 99.9693Z" fill="#EFBD2F"/>
<path d="M203.074 110.212C202.558 109.312 201.168 108.897 199.972 109.285L159.266 122.456C158.068 122.844 157.516 123.887 158.032 124.786C158.417 125.457 159.287 125.858 160.203 125.858L201.842 112.541C203.036 112.155 203.59 111.111 203.074 110.212L203.074 110.212Z" fill="#EFBD2F"/>
<path d="M217.614 135.828L209.862 122.169C209.616 121.736 209.15 121.393 208.566 121.218C207.984 121.043 207.333 121.05 206.754 121.237L166.048 134.407C164.854 134.794 164.3 135.833 164.81 136.731L172.563 150.39C173.209 151.152 174.322 151.565 175.669 151.324L216.375 138.153C217.571 137.765 218.125 136.727 217.614 135.828V135.828ZM175.979 147.361L170.078 136.966L206.447 125.198L212.348 135.593L175.979 147.361Z" fill="#EFBD2F"/>
<path d="M256.058 80.9465C255.542 80.0467 254.152 79.6321 252.956 80.0199L212.25 93.1905C211.052 93.5783 210.5 94.622 211.016 95.5203C211.401 96.1916 212.27 96.5922 213.186 96.5922L254.826 83.2761C256.02 82.8882 256.572 81.846 256.058 80.9463L256.058 80.9465Z" fill="#EFBD2F"/>
<path d="M261.874 91.1889C261.358 90.2891 259.968 89.8745 258.772 90.2624L218.066 103.433C216.868 103.821 216.316 104.864 216.832 105.763C217.217 106.434 218.086 106.835 219.002 106.835L260.642 93.5185C261.836 93.1321 262.39 92.0885 261.874 91.1887L261.874 91.1889Z" fill="#EFBD2F"/>
<path d="M276.414 116.804L268.661 103.146C268.415 102.711 267.95 102.37 267.366 102.195C266.784 102.02 266.132 102.027 265.554 102.214L247.463 108.068C246.269 108.454 245.715 109.494 246.226 110.392L253.978 124.051C254.224 124.484 254.69 124.826 255.274 125.001C255.556 125.086 255.852 125.128 256.151 125.128C256.468 125.128 256.787 125.08 257.086 124.984L275.179 119.13C276.371 118.742 276.925 117.703 276.414 116.804H276.414ZM257.394 121.021L251.493 110.626L265.248 106.177L271.149 116.572L257.394 121.021Z" fill="#EFBD2F"/>
<path d="M243.455 115.335C242.938 114.435 241.549 114.021 240.353 114.409L226.785 118.799C225.587 119.187 225.035 120.23 225.552 121.129C225.937 121.8 226.806 122.2 227.722 122.2C228.034 122.2 228.351 122.154 228.655 122.055L242.223 117.665C243.419 117.279 243.971 116.235 243.455 115.335V115.335Z" fill="#EFBD2F"/>
<path d="M244.229 121.238L230.661 125.628C229.463 126.016 228.911 127.06 229.427 127.958C229.812 128.629 230.682 129.03 231.598 129.03C231.91 129.03 232.227 128.983 232.531 128.885L246.099 124.494C247.297 124.107 247.849 123.063 247.332 122.165C246.816 121.266 245.428 120.852 244.229 121.238V121.238Z" fill="#EFBD2F"/>
</svg>
