<svg width="78" height="52" viewBox="0 0 78 52" fill="none" xmlns="http://www.w3.org/2000/svg">
<path d="M75.908 24.9172H61.5182C60.8528 24.9172 60.3133 25.464 60.3133 26.1383V31.689H46.9907C46.3253 31.689 45.7858 32.2358 45.7858 32.9101V37.7381H31.9303C31.2649 37.7381 30.7254 38.2849 30.7254 38.9592V43.2328H17.4716C16.8062 43.2328 16.2667 43.7795 16.2667 44.4538V49.338H1.20489C0.539515 49.338 0 49.8847 0 50.559C0 51.2333 0.539515 51.78 1.20489 51.78H17.4702C18.1356 51.78 18.6751 51.2333 18.6751 50.559V45.6749H31.9289C32.5943 45.6749 33.1338 45.1281 33.1338 44.4538V40.1802H46.9893C47.6547 40.1802 48.1942 39.6334 48.1942 38.9592V34.1311H61.5168C62.1822 34.1311 62.7217 33.5844 62.7217 32.9101V27.3593H75.9066C76.572 27.3593 77.1115 26.8126 77.1115 26.1383C77.1115 25.464 76.572 24.9172 75.9066 24.9172H75.908Z" fill="#142256"/>
<path d="M25.1465 21.9683C25.5839 22.1455 26.033 22.2333 26.4913 22.2333C26.7102 22.2333 26.9254 22.2136 27.1346 22.1755C27.1561 22.4573 27.1836 22.7331 27.218 23.0013L27.2228 23.0428L27.2298 23.0836C27.3729 23.9858 27.417 25.1348 27.3218 25.4919L27.2944 25.595L27.2761 25.6996C26.97 27.4368 26.1201 32.1848 25.8663 33.276C25.528 34.7255 25.8523 36.1842 26.7345 37.1762C27.4703 38.0059 28.4729 38.4627 29.5562 38.4627C31.3614 38.4627 32.9573 37.1703 33.3506 35.3895L34.4872 30.5091C34.7825 30.9512 35.1988 31.3589 35.7851 31.6712C36.3354 31.9645 36.9631 32.1188 37.6011 32.1188C38.7011 32.1188 39.7383 31.6647 40.4461 30.8732C41.1157 30.1242 41.496 29.1512 41.5218 28.1254L41.7628 23.6811L41.7752 23.5077C41.8327 22.7364 41.985 20.6885 39.8953 19.4909C39.849 19.4631 39.8028 19.4364 39.7576 19.4097C41.1605 18.9828 42.1609 17.607 42.1609 15.9296C42.1609 15.0095 41.8468 14.1346 41.2771 13.4664C40.5956 12.6672 39.614 12.2257 38.5135 12.2235C38.3795 12.2186 37.953 12.2028 37.4613 12.1843C37.4145 11.879 37.3532 11.5634 37.2731 11.2254C36.9815 9.98968 36.4087 9.01069 35.5981 8.27918C36.6523 7.44625 37.3414 6.09988 37.3414 4.5784C37.3414 2.05399 35.4496 0 33.1243 0C30.7989 0 28.9071 2.05399 28.9071 4.5784C28.9071 5.6419 29.2455 6.61983 29.8081 7.39822C29.437 7.64515 29.0847 7.95641 28.7544 8.33744C28.7549 8.3369 25.5345 11.8833 25.5001 11.9216C25.0891 12.3746 24.7949 12.851 24.5781 13.4157L23.1291 17.2112C22.4137 19.0848 23.319 21.2194 25.1467 21.9684L25.1465 21.9683ZM33.1241 2.44154C34.1225 2.44154 34.9315 3.39821 34.9315 4.57787C34.9315 5.75856 34.1225 6.71517 33.1241 6.71517C32.1258 6.71517 31.3168 5.7585 31.3168 4.57787C31.3168 3.39826 32.1258 2.44154 33.1241 2.44154ZM25.3768 18.0903L26.8243 14.2986C26.9346 14.0118 27.0744 13.7927 27.2788 13.567C27.3132 13.5289 30.5342 9.98235 30.5342 9.98235C30.6945 9.80083 31.2055 9.15652 32.0247 9.15652C32.0247 9.15652 32.2334 9.1636 32.3464 9.19249C32.895 9.33204 33.3969 9.60841 33.8498 9.95346C34.4393 10.4026 34.7594 11.0742 34.9293 11.7942C35.1311 12.6446 35.1827 13.3118 35.2064 14.1731C35.2123 14.3633 35.2177 14.5399 35.4027 14.5503C35.414 14.5514 38.4693 14.6642 38.4693 14.6642H38.5037C40.2046 14.6642 40.0196 17.1035 38.8292 17.1035C38.8173 17.1035 36.4118 17.0844 35.5426 17.0844H35.5211C35.2183 17.0844 35.2237 17.3319 35.2237 17.3319C35.2253 17.4011 35.2183 17.4649 35.2151 17.5341C35.2054 17.8208 35.1914 18.1081 35.1871 18.3954C35.1758 19.0114 35.0564 19.5674 35.7051 19.8449C35.7164 19.8498 38.7097 21.6149 38.7097 21.6149C39.5483 22.0957 39.4068 22.7547 39.3574 23.5456L39.1142 28.0335C39.1099 28.4805 38.955 28.9035 38.6618 29.2311C38.3967 29.5276 37.9975 29.6748 37.6022 29.6748C37.3591 29.6748 37.117 29.6192 36.9083 29.508C36.1994 29.1302 36.1746 28.2466 36.1622 27.5206C36.1617 27.4955 36.1924 24.4085 36.1924 24.4085C36.2225 23.756 35.9681 23.4143 35.9681 23.4143L33.2597 22.2374C33.2597 22.2374 33.1796 22.1818 33.1048 22.1818C33.0812 22.1818 33.0575 22.1878 33.0376 22.2025C32.9316 22.2826 32.9811 22.4325 32.9811 22.4325L33.157 24.1448C33.3071 24.7504 33.1242 25.8384 33.1242 25.8384L32.9246 26.583L30.999 34.8544C30.8452 35.5521 30.2099 36.0193 29.5563 36.0193C29.1911 36.0193 28.8205 35.8738 28.5252 35.5407C28.1363 35.103 28.0787 34.4063 28.2121 33.835C28.537 32.439 29.6489 26.1278 29.6489 26.1278C29.9689 24.927 29.6091 22.6898 29.6091 22.6898C29.189 19.3756 29.8882 14.4877 29.8882 14.4877C29.9038 14.4037 29.9189 14.3209 29.9345 14.2369L29.0427 15.2426L27.6064 19.0044C27.4198 19.4928 26.9685 19.7899 26.4914 19.7899C26.344 19.7899 26.195 19.7621 26.0503 19.7032C25.4344 19.4508 25.1332 18.7286 25.3769 18.0902L25.3768 18.0903Z" fill="#142256"/>
</svg>
