<svg width="90" height="81" viewBox="0 0 90 81" fill="none" xmlns="http://www.w3.org/2000/svg">
<path d="M36.0398 20.3865C30.664 23.1618 26.8804 28.426 26.1833 34.456H32.0571C32.3558 28.9048 33.8495 23.9281 36.0398 20.3865Z" fill="#4257A7"/>
<path d="M63.8167 38.2844H57.9429C57.6443 43.8356 56.2505 48.8129 53.9609 52.3539C59.3367 49.5779 63.1203 44.4099 63.8169 38.2844H63.8167Z" fill="#4257A7"/>
<path d="M36.0399 52.4496C33.8496 48.9085 32.3564 43.9314 32.0579 38.3801H26.1841C26.8799 44.4101 30.6633 49.5783 36.04 52.4496H36.0399Z" fill="#4257A7"/>
<path d="M63.8167 34.456C63.1194 28.3305 59.3367 23.1624 53.9602 20.3865C56.1505 23.9276 57.6437 28.9048 57.9422 34.456H63.8167Z" fill="#4257A7"/>
<path d="M43.0089 18.6636C39.2255 20.4823 36.5379 27.5644 36.1392 34.4556H43.0089V18.6636Z" fill="#4257A7"/>
<path d="M46.9912 54.0767C50.7746 52.258 53.4622 45.1759 53.8609 38.2847H46.9912V54.0767Z" fill="#4257A7"/>
<path d="M46.9912 18.6636V34.4556H53.8609C53.463 27.5644 50.7748 20.5777 46.9912 18.6636Z" fill="#4257A7"/>
<path d="M43.0089 54.0767V38.2847H36.1392C36.5371 45.2715 39.1261 52.2582 43.0089 54.0767V54.0767Z" fill="#4257A7"/>
<path d="M78.8499 48.0469C77.8541 47.6644 76.6596 48.0469 76.2616 49.0998C74.8678 52.1629 72.9762 55.1298 70.6865 57.7134C70.3879 58.0005 70.1886 58.4792 70.1886 58.8618C69.9892 64.7001 70.8858 70.3469 72.7769 75.8983L71.781 75.8029C66.5044 75.3242 61.8252 72.3573 59.3362 67.8588C58.8383 66.9976 57.8431 66.6144 56.8472 66.9015C52.9652 68.2421 48.9825 68.9124 45.0003 68.9124C26.8806 68.9124 12.0464 55.1299 11.1504 37.902L14.3366 41.7301C15.0339 42.5914 16.2284 42.6875 17.1243 42.0172C17.6222 41.6347 17.9208 41.0598 17.9208 40.4857C17.9208 40.1031 17.8215 39.6245 17.5229 39.3374L10.9511 31.3939C10.5532 31.0113 10.0553 30.7236 9.45803 30.7236C8.8608 30.7236 8.36285 30.9152 7.96493 31.2977L0.597418 38.5716C-0.199139 39.3374 -0.199139 40.5819 0.597418 41.2515C1.39398 42.0173 2.6885 42.0173 3.38506 41.2515L7.16846 37.5188C7.76571 57.0438 24.4918 72.8361 45.0007 72.8361C48.9827 72.8361 52.8655 72.262 56.6491 71.1137C59.9345 75.9948 65.3105 79.1532 71.3836 79.7273L75.565 80.1099H75.7644C76.3616 80.1099 76.9588 79.8228 77.3574 79.3441C77.7554 78.8654 77.8554 78.0997 77.6561 77.5254L76.8588 75.8037C74.8678 70.6356 73.972 65.1797 74.0712 59.7246C76.4608 56.9493 78.4519 53.8862 79.8456 50.6322C80.2435 49.5787 79.8456 48.4303 78.8497 48.0471L78.8499 48.0469Z" fill="#4257A7"/>
<path d="M89.4033 31.5846C88.6067 30.8189 87.3122 30.8189 86.6156 31.5846L82.8322 35.3174C82.235 15.7923 65.5089 0 45 0C29.7675 0 16.0284 8.70987 10.1545 22.205C9.75653 23.1623 10.1545 24.3106 11.2496 24.6933C12.2455 25.0758 13.4399 24.6933 13.838 23.6404C19.1146 11.6759 31.3607 3.82824 44.9998 3.82824C63.1195 3.82824 77.9537 17.6108 78.8497 34.8386L75.6635 31.0105C74.9663 30.1493 73.7717 30.0531 72.8759 30.7234C72.3779 31.106 72.0793 31.6808 72.0793 32.2549C72.0793 32.6375 72.1786 33.1162 72.4772 33.4033L79.0483 41.3473C79.4462 41.7298 79.9442 42.0176 80.5414 42.0176H80.6407C81.1386 42.0176 81.7359 41.826 82.0345 41.4434L89.402 34.1696C90.1993 33.4986 90.1993 32.2541 89.4034 31.5838L89.4033 31.5846Z" fill="#4257A7"/>
</svg>
