<svg width="77" height="62" viewBox="0 0 77 62" fill="none" xmlns="http://www.w3.org/2000/svg">
<path d="M57.12 49.7426C56.6009 50.1763 55.9641 50.4093 55.3132 50.4249C54.9281 50.433 54.5406 50.3671 54.1727 50.2196C53.7254 50.0398 53.3499 49.7432 53.0458 49.3917C50.0648 53.3187 45.848 56.2171 40.9749 57.4961C43.6923 55.5789 45.9397 52.2734 47.4466 48.0937H52.4023C52.3835 48.0053 52.3453 47.9261 52.335 47.837L52.076 45.8428L48.1609 45.8434C48.9254 43.089 49.3813 40.0338 49.468 36.7844H50.8983L50.6057 34.5335H49.468C49.4269 33.0256 49.298 31.5635 49.108 30.1526C48.3999 30.3526 47.6645 30.5498 46.936 30.7464C47.094 31.9768 47.2104 33.2332 47.2486 34.5335H39.4237L38.973 36.7844H47.2475C47.1527 40.0453 46.6666 43.1241 45.8508 45.8433H36.4968V40.8693L35.3591 41.6753C35.0294 41.9118 34.6574 42.043 34.2757 42.1228V45.8434H24.9211C24.5223 44.5119 24.2034 43.0906 23.9695 41.6071C23.727 41.7065 23.4771 41.8072 23.2386 41.9101C22.7622 42.1153 22.3371 42.32 21.8847 42.5252C22.0838 43.6654 22.3183 44.7825 22.6099 45.8434H15.5147V45.8417C14.8757 46.2366 14.2658 46.6309 13.7009 47.0316C13.2548 47.3502 12.8485 47.6636 12.464 47.9741C16.8308 56.286 25.4626 61.9627 35.3848 61.9627C44.6903 61.9627 52.8417 56.959 57.4235 49.4843L57.12 49.7426ZM16.792 48.0942H23.3247C24.8344 52.2738 27.0783 55.5787 29.7964 57.4965C24.3974 56.0806 19.7897 52.6843 16.7922 48.0942H16.792ZM34.2751 57.0151C30.7464 56.4213 27.6684 53.0348 25.7131 48.0942H34.2751V57.0151ZM36.4962 48.0942H45.0583C43.1054 53.0312 40.0232 56.4206 36.4962 57.0151V48.0942Z" fill="#142256"/>
<path d="M77 12.0638C73.3691 9.64408 65.7781 11.3521 57.3567 14.6454L42.5595 0L37.5747 0.172882L49.4698 18.0472C44.5757 20.3275 39.7285 22.8658 35.4779 25.2114L29.3378 20.5125L26.7875 20.8138L33.1284 28.9084L33.6744 39.2307L35.7803 37.7414L37.3043 30.1001C42.0209 29.0062 47.3149 27.6503 52.4695 26.0736L55.244 47.4456L59.09 44.2268L60.5933 23.3256C69.0618 20.1323 75.8622 16.3128 77 12.0643L77 12.0638Z" fill="#142256"/>
<path d="M41.7065 11.7056L40.4816 9.86462C38.8288 9.53101 37.1297 9.34888 35.3833 9.34888C22.4218 9.34888 11.6796 19.0369 9.76184 31.6355C11.3571 30.4161 12.906 29.3442 14.325 28.411C14.661 27.4009 15.0422 26.4098 15.5134 25.4692H19.0879C20.3767 24.717 21.6998 23.9654 23.0919 23.2183H16.7914C19.7868 18.6281 24.3961 15.2325 29.7963 13.816C28.3494 14.8382 27.0406 16.2628 25.9 17.9956C26.0792 17.9378 26.2572 17.8759 26.4489 17.8546L28.9992 17.5533C29.0146 17.5522 29.0329 17.5533 29.0465 17.5522C30.5888 15.7863 32.3607 14.6197 34.2738 14.2992V20.5563L35.7418 21.6808C35.998 21.5415 36.2405 21.4195 36.4955 21.2802V14.2992C38.6522 14.6611 40.6399 16.0794 42.3082 18.2459L45.1854 16.8599L41.7065 11.7056Z" fill="#142256"/>
<path d="M30.2483 30.0152L26.2523 24.915C23.5377 26.3252 20.507 27.9955 17.3398 29.9961C13.8025 32.2487 10.0894 34.85 6.6839 38.1642C4.99342 39.8339 3.36853 41.6899 2.0505 43.9276C1.39895 45.0487 0.83355 46.275 0.444452 47.6031C0.340044 47.928 0.269868 48.2784 0.189989 48.6172C0.147199 48.7855 0.12723 48.9624 0.0952799 49.1359L0.00285269 49.7632L0 50.5293L0.0211099 51.6585C0.118101 53.019 0.476402 54.4668 1.189 55.7295C1.88506 57.0032 2.93031 57.9821 3.9698 58.6106C6.08472 59.8659 8.06745 60.0711 9.77501 60.1735C13.204 60.2793 15.8358 59.7133 17.677 59.3427C18.2504 59.2195 18.7331 59.1067 19.1421 59.0102C13.7985 58.7257 10.4694 57.4272 8.68192 56.4436C8.17128 56.1811 7.69773 55.8863 7.29323 55.544C7.10667 55.3977 7.0051 55.3017 7.0051 55.3017L7.0399 55.2988C6.92979 55.193 6.80199 55.0936 6.70899 54.9802C5.90397 54.0049 5.88286 53.1191 6.16813 51.8482C6.21719 51.7176 6.25998 51.5985 6.29536 51.4753L6.51274 50.7393L6.52015 50.7179C6.54012 50.6028 6.50018 50.848 6.50589 50.8156L6.51787 50.7896L6.53784 50.7318L6.57778 50.6202C6.60802 50.5473 6.62399 50.4739 6.66165 50.3976C6.73353 50.2473 6.7826 50.0975 6.86876 49.9454C7.17057 49.3349 7.58307 48.7133 8.0937 48.0958C9.11781 46.8591 10.5037 45.6745 12.0224 44.5926C15.0867 42.4273 18.6646 40.6547 22.0964 39.1727C25.081 37.8892 27.9627 36.8491 30.5638 35.9743L30.2483 30.0152Z" fill="#142256"/>
</svg>
