<svg width="41" height="29" viewBox="0 0 41 29" fill="none" xmlns="http://www.w3.org/2000/svg">
<path fill-rule="evenodd" clip-rule="evenodd" d="M1.86798 27.897L4.56198 21.1067C2.89998 19.1197 2.02598 16.8648 2.02698 14.5554C2.03198 7.33023 10.548 1.45206 21.014 1.45206C26.093 1.45344 30.859 2.81838 34.444 5.2949C38.028 7.7721 40.002 11.064 40 14.5658C39.996 21.7909 31.478 27.6698 21.014 27.6698C21.013 27.6698 21.014 27.6698 21.014 27.6698H21.006C17.829 27.6691 14.706 27.1189 11.933 26.0743L1.86798 27.897Z" fill="white"/>
<path fill-rule="evenodd" clip-rule="evenodd" d="M1.86797 28.2422C1.73597 28.2422 1.60797 28.2063 1.51297 28.14C1.38797 28.0523 1.33897 27.9246 1.38597 27.8065L4.02497 21.1537C2.38897 19.1474 1.52597 16.869 1.52797 14.5561C1.53197 7.1397 10.273 1.10687 21.014 1.10687C26.224 1.10825 31.119 2.5091 34.798 5.0512C38.477 7.59399 40.502 10.9729 40.5 14.5658C40.496 21.9815 31.754 28.015 21.014 28.015C17.825 28.0143 14.67 27.471 11.87 26.443L1.99497 28.2304C1.95297 28.2387 1.91097 28.2422 1.86797 28.2422Z" fill="white"/>
<path fill-rule="evenodd" clip-rule="evenodd" d="M21.014 1.45207C26.093 1.45345 30.859 2.8184 34.444 5.29491C38.028 7.77211 40.002 11.064 40 14.5658C39.996 21.791 31.478 27.6698 21.014 27.6698H21.006C17.829 27.6691 14.706 27.1189 11.933 26.0743L1.86797 27.897L4.56196 21.1068C2.89997 19.1197 2.02596 16.8649 2.02697 14.5554C2.03197 7.33025 10.548 1.45207 21.014 1.45207ZM21.014 0.761658C9.99797 0.761658 1.03197 6.94914 1.02697 14.5554C1.02597 16.88 1.87597 19.1708 3.48797 21.1986L0.902965 27.7154C0.808965 27.9536 0.904965 28.2077 1.15697 28.383C1.34697 28.5156 1.60397 28.5881 1.86797 28.5881C1.95297 28.5881 2.03797 28.5805 2.12197 28.5653L11.809 26.8116C14.637 27.8252 17.807 28.3602 21.006 28.3609C32.03 28.3609 40.996 22.1728 41.001 14.5665C41.003 10.8804 38.926 7.41448 35.153 4.80748C31.378 2.19979 26.357 0.763039 21.014 0.761658Z" fill="#CFD8DC"/>
<path fill-rule="evenodd" clip-rule="evenodd" d="M32.176 6.85938C29.196 4.80057 25.235 3.66622 21.019 3.66553C12.315 3.66553 5.23597 8.55089 5.23197 14.5561C5.23097 16.6142 6.06497 18.6178 7.64497 20.3528L8.02096 20.765L6.42596 24.7839L12.399 23.7027L12.976 23.9388C15.398 24.9316 18.176 25.4563 21.008 25.457H21.014C29.712 25.457 36.791 20.571 36.794 14.5651C36.795 11.655 35.156 8.91819 32.176 6.85938Z" fill="#40C351"/>
<path fill-rule="evenodd" clip-rule="evenodd" d="M16.268 9.07768C15.913 8.53226 15.539 8.52121 15.2 8.51155C14.923 8.50326 14.607 8.50395 14.291 8.50395C13.975 8.50395 13.461 8.58611 13.026 8.91406C12.591 9.242 11.365 10.0339 11.365 11.6453C11.365 13.2568 13.065 14.8143 13.302 15.0325C13.539 15.2507 16.584 18.6634 21.406 19.9765C25.413 21.0674 26.229 20.8506 27.099 20.7961C27.969 20.7415 29.906 20.0042 30.301 19.2392C30.696 18.4742 30.696 17.819 30.578 17.6823C30.459 17.5456 30.143 17.4641 29.669 17.2998C29.195 17.1355 26.862 16.3436 26.427 16.2345C25.992 16.1254 25.676 16.0709 25.359 16.3988C25.043 16.7261 24.134 17.4641 23.857 17.6823C23.58 17.9012 23.303 17.9288 22.829 17.7645C22.355 17.6001 20.827 17.2549 19.014 16.1392C17.604 15.2714 16.652 14.1992 16.375 13.8712C16.098 13.544 16.345 13.3665 16.583 13.2029C16.796 13.0558 17.057 12.8204 17.295 12.6292C17.532 12.4379 17.611 12.3012 17.769 12.0831C17.927 11.8642 17.848 11.6729 17.729 11.5093C17.612 11.345 16.69 9.72529 16.268 9.07768Z" fill="white"/>
</svg>
